<?xml version="1.0" standalone="no"?>
<!DOCTYPE svg PUBLIC "-//W3C//DTD SVG 20010904//EN"
 "http://www.w3.org/TR/2001/REC-SVG-20010904/DTD/svg10.dtd">
<svg version="1.0" xmlns="http://www.w3.org/2000/svg"
 width="607.000000pt" height="607.000000pt" viewBox="0 0 607.000000 607.000000"
 preserveAspectRatio="xMidYMid meet">
<metadata>
Created by potrace 1.14, written by Peter Selinger 2001-2017
</metadata>
<g transform="translate(0.000000,607.000000) scale(0.100000,-0.100000)"
fill="#000000" stroke="none">
<path d="M2980 5269 c-41 -5 -140 -27 -219 -50 -80 -22 -163 -41 -185 -41 -25
0 -66 12 -106 30 -75 36 -101 34 -153 -9 -119 -98 -139 -370 -41 -550 16 -28
20 -64 24 -210 l5 -175 37 -75 c21 -41 60 -100 88 -132 45 -53 50 -63 50 -108
0 -27 -2 -49 -5 -49 -3 0 -33 14 -66 30 -33 17 -88 38 -122 47 -75 20 -222 22
-297 4 -88 -21 -213 -86 -277 -144 l-58 -52 -65 17 c-37 9 -105 17 -158 17
-84 1 -93 3 -88 19 3 9 10 38 17 65 l11 47 47 0 c63 0 156 25 211 57 69 40
145 125 181 200 66 138 48 314 -45 441 -110 149 -290 213 -469 166 -66 -17
-267 -95 -373 -145 -84 -40 -170 -122 -207 -199 -32 -67 -332 -945 -348 -1020
-19 -87 -6 -183 36 -266 59 -121 188 -224 316 -253 25 -6 203 -11 421 -11
l377 0 87 -127 c48 -71 146 -213 218 -318 72 -104 154 -228 183 -274 l53 -84
0 -745 0 -744 34 -34 c44 -44 102 -47 152 -9 l33 25 750 0 750 0 37 -25 c55
-37 104 -34 152 9 l37 35 0 748 c0 437 4 754 9 763 5 8 126 187 268 398 l259
382 357 0 c196 0 384 5 417 10 140 23 286 134 351 267 27 54 29 66 29 173 l-1
115 -163 470 c-89 259 -175 493 -189 520 -43 80 -117 147 -213 193 -100 47
-237 104 -333 138 -206 72 -440 -23 -534 -216 -108 -223 -27 -481 184 -588 67
-34 159 -54 203 -46 27 6 29 4 50 -57 11 -35 21 -67 21 -71 0 -4 -38 -8 -86
-8 -47 0 -116 -7 -155 -16 l-70 -16 -40 37 c-123 111 -264 166 -424 168 -128
1 -212 -21 -347 -91 -5 -2 -8 18 -8 45 0 45 5 57 54 119 111 144 126 197 126
454 0 108 -5 223 -11 256 -34 186 -194 366 -399 446 -113 45 -250 62 -380 47z
m250 -256 c82 -22 144 -59 204 -123 78 -81 86 -116 86 -359 0 -186 -1 -199
-24 -248 -14 -29 -51 -80 -83 -115 -58 -62 -59 -63 -108 -60 -28 1 -171 -1
-320 -5 l-270 -8 -30 37 c-16 20 -49 60 -72 88 -23 28 -47 68 -53 88 -5 20
-10 107 -10 193 l0 155 -39 82 c-35 72 -71 196 -60 207 3 2 25 -1 49 -6 66
-16 153 -3 301 42 196 60 298 68 429 32z m-1710 -458 c20 -14 47 -43 59 -65
45 -81 19 -211 -52 -262 -29 -21 -43 -23 -154 -23 -144 0 -165 -10 -200 -96
-12 -30 -23 -48 -23 -41 0 16 -301 5 -312 -12 -17 -24 -6 16 42 159 60 180 62
184 105 212 38 25 286 130 355 150 62 18 135 9 180 -22z m3325 -27 c175 -74
253 -115 270 -142 11 -16 95 -247 95 -261 0 0 -74 1 -164 3 -161 3 -163 3
-176 27 -22 42 -73 58 -149 49 -36 -5 -82 -7 -101 -6 -109 9 -189 153 -146
265 32 85 110 132 201 122 28 -4 104 -29 170 -57z"/>
</g>
</svg>
