<?xml version="1.0" encoding="UTF-8" standalone="no"?>
<svg
   version="1.1"
   viewBox="0 0 606.75464 595.43146"
   id="svg115"
   sodipodi:docname="brand.svg"
   inkscape:version="1.3 (0e150ed, 2023-07-21)"
   width="606.75464"
   height="595.43146"
   inkscape:export-filename="../../public/brand.svg"
   inkscape:export-xdpi="96"
   inkscape:export-ydpi="96"
   xmlns:inkscape="http://www.inkscape.org/namespaces/inkscape"
   xmlns:sodipodi="http://sodipodi.sourceforge.net/DTD/sodipodi-0.dtd"
   xmlns:xlink="http://www.w3.org/1999/xlink"
   xmlns="http://www.w3.org/2000/svg"
   xmlns:svg="http://www.w3.org/2000/svg">
  <defs
     id="defs115">
    <linearGradient
       id="linearGradient1"
       inkscape:collect="always">
      <stop
         style="stop-color:#fefcfd;stop-opacity:1;"
         offset="0"
         id="stop1" />
      <stop
         style="stop-color:#e8e8ea;stop-opacity:1;"
         offset="1"
         id="stop2" />
    </linearGradient>
    <linearGradient
       id="linearGradient178"
       inkscape:collect="always">
      <stop
         style="stop-color:#7d0044;stop-opacity:1;"
         offset="0"
         id="stop179" />
      <stop
         style="stop-color:#5c0045;stop-opacity:1;"
         offset="0.45107034"
         id="stop181" />
      <stop
         style="stop-color:#3f0047;stop-opacity:1;"
         offset="0.71823943"
         id="stop182" />
      <stop
         style="stop-color:#180043;stop-opacity:1;"
         offset="1"
         id="stop180" />
    </linearGradient>
    <linearGradient
       id="linearGradient166"
       inkscape:collect="always">
      <stop
         style="stop-color:#fe9637;stop-opacity:1;"
         offset="0"
         id="stop166" />
      <stop
         style="stop-color:#ff743f;stop-opacity:1;"
         offset="0.11276758"
         id="stop173" />
      <stop
         style="stop-color:#ff6243;stop-opacity:1;"
         offset="0.20279051"
         id="stop174" />
      <stop
         style="stop-color:#ff4f48;stop-opacity:1;"
         offset="0.32272553"
         id="stop175" />
      <stop
         style="stop-color:#ff3d4f;stop-opacity:1;"
         offset="0.45150039"
         id="stop176" />
      <stop
         style="stop-color:#fc235e;stop-opacity:1;"
         offset="0.60304379"
         id="stop177" />
      <stop
         style="stop-color:#ca2176;stop-opacity:1;"
         offset="0.75985521"
         id="stop178" />
      <stop
         style="stop-color:#802fa7;stop-opacity:1;"
         offset="0.9044342"
         id="stop172" />
      <stop
         style="stop-color:#4744e2;stop-opacity:1;"
         offset="1"
         id="stop168" />
    </linearGradient>
    <linearGradient
       inkscape:collect="always"
       xlink:href="#linearGradient166"
       id="linearGradient167"
       x1="508.33597"
       y1="330.04214"
       x2="514.37854"
       y2="755.31372"
       gradientUnits="userSpaceOnUse"
       gradientTransform="translate(-158.71293,-177.38504)" />
    <radialGradient
       inkscape:collect="always"
       xlink:href="#linearGradient178"
       id="radialGradient182"
       cx="499.83167"
       cy="294.33322"
       fx="499.83167"
       fy="294.33322"
       r="267.05728"
       gradientTransform="matrix(1.2557514,-0.02255372,0.00910676,0.50704889,-281.18482,25.068884)"
       gradientUnits="userSpaceOnUse" />
    <linearGradient
       inkscape:collect="always"
       xlink:href="#linearGradient1"
       id="linearGradient2"
       x1="494.69812"
       y1="370.95956"
       x2="497.85117"
       y2="557.95239"
       gradientUnits="userSpaceOnUse"
       gradientTransform="translate(-158.71293,-177.38504)" />
  </defs>
  <sodipodi:namedview
     id="namedview115"
     pagecolor="#ffffff"
     bordercolor="#000000"
     borderopacity="0.25"
     inkscape:showpageshadow="2"
     inkscape:pageopacity="0.0"
     inkscape:pagecheckerboard="0"
     inkscape:deskcolor="#d1d1d1"
     inkscape:zoom="0.42844651"
     inkscape:cx="925.4364"
     inkscape:cy="620.84762"
     inkscape:window-width="1512"
     inkscape:window-height="945"
     inkscape:window-x="0"
     inkscape:window-y="37"
     inkscape:window-maximized="0"
     inkscape:current-layer="svg115" />
  <g
     id="g2"
     transform="translate(-54.452181,-39.684965)">
    <path
       id="path101"
       style="fill:url(#linearGradient2)"
       d="m 501.28707,39.714574 c -99.91313,-0.07333 -199.8302,-0.01055 -299.75,0.18945 -4.02,0.0067 -9.35335,0.49427 -16,1.46094 -40.07325,5.79998 -72.68037,24.1272 -97.820307,54.98047 -17.84996,21.909956 -28.88033,50.048646 -32.32031,78.308586 -0.56,4.62666 -0.85534,11.27786 -0.88868,19.95117 -0.08,20.3533 -0.0738,40.70221 0.01953,61.04883 -0.01333,73.06653 -0.01333,146.13775 0,219.21094 0,9.03998 0.16667,15.70047 0.5,19.98047 4.92,63.36988 45.350667,117.09035 107.060547,134.82031 12.59331,3.62 23.74257,5.42969 33.44922,5.42969 105.41312,0.0333 210.8333,0.0271 316.25977,-0.0195 8.47331,-0.007 15.12451,-0.28847 19.95117,-0.8418 51.7999,-5.94998 95.40863,-39.26994 115.80859,-87.08984 7.76998,-18.19996 12.98969,-38.25934 13.42969,-57.7793 0.49,-22.17996 3.1e-4,-60.16031 0.0703,-99.74023 0.08,-45.49325 0.0769,-90.98413 -0.01,-136.47071 0.0333,-18.51329 0.0209,-37.02577 -0.0391,-55.53906 -0.0267,-8.89998 -0.27666,-15.55738 -0.75,-19.9707 -3.83998,-35.54994 -19.53082,-68.64928 -44.55078,-93.699216 -24.43994,-24.47329 -53.70751,-38.90436 -87.80078,-43.29102 -8.43998,-1.09 -17.71916,-0.92945 -26.61914,-0.93945 z M 90.882773,299.43723 v 11.17187 c -0.47718,-3.59151 -0.46953,-7.3178 0,-11.17187 z" />
    <path
       id="path116"
       d="m 362.24019,137.78098 c -6.01729,-0.0318 -12.07947,0.80398 -17.85351,2.40429 -16.11994,4.46 -29.46902,11.45961 -44.45899,6.09961 -0.35997,-0.12666 -0.54101,8.6e-4 -0.54101,0.38086 -0.0267,4.72 0.69969,9.3425 2.17969,13.86914 1.16,3.55 3.50143,7.02969 5.4414,10.42969 1.36667,2.69333 2.02519,5.65731 1.97852,8.89062 -0.04,5.74667 -0.0699,11.50907 -0.0898,17.28907 -0.02,7.57997 -0.31985,12.52039 2.41015,17.65039 1.08667,2.04 3.14328,4.79 6.16992,8.25 4.08,4.22997 7.9611,7.74086 8.3711,13.63086 -0.0467,9.79998 -0.12071,19.6128 -0.22071,29.43945 -0.06,6.20998 -0.2507,12.21914 -5.4707,15.86914 -6.09998,4.27 -11.39002,2.22139 -17.25,-2.05859 -9.80998,-7.17 -17.52916,-12.53008 -30.86914,-13.83008 -12.63998,-1.23333 -23.64932,2.40661 -33.0293,10.91992 -4.10998,3.73 -7.96008,9.52947 -12.08008,14.18945 -2.34666,0.12 -4.4331,-0.29976 -6.25976,-1.25976 -4.61,-2.41 -9.62079,-4.90953 -14.55078,-6.01953 -4.12,-0.92 -21.75079,-2.46101 -24.30078,1.45898 -3.63,5.55 -9.22017,10.46047 -16.41016,8.48047 -2.37333,-0.65333 -4.30859,-2.01031 -5.80859,-4.07031 -4.96,-6.78 -2.11,-13.40884 0.25,-20.54883 3.89998,-12.07331 7.95659,-24.70398 12.16992,-37.89063 2.17,-6.77998 7.19002,-11.59007 14.75,-10.08007 8.49998,1.69998 15.31939,2.73982 22.35937,-3.41016 8.4,-8.73998 8.70069,-23.41033 -1.27929,-31.32031 -3.62,-2.875 -7.4051,-4.09805 -11.29883,-4.2168 -3.89375,-0.11875 -7.89619,0.86625 -11.95117,2.40625 -8.15332,3.10666 -16.25414,6.35047 -24.30078,9.73047 -4.58,1.92666 -8.14279,3.93792 -10.68946,6.03125 -1.36,1.48 -2.41039,3.34319 -3.15039,5.58984 -4.21332,12.82665 -11.27304,33.66626 -21.17969,62.51953 l -1.58007,4.76954 c -3.81333,10.96665 -6.59938,19.21357 -8.35938,24.74023 -0.6,1.88666 -0.90349,4.03589 -0.91016,6.44922 0.67,12.68999 11.31939,22.02078 23.85938,22.05078 23.91331,0.0667 47.83002,7.8e-4 71.75,-0.19922 6.16666,-0.0533 10.97326,2.5362 14.41992,7.76953 3.98,6.04666 12.15598,18.13932 24.5293,36.2793 0.73666,0.34667 1.52156,0.61693 2.35156,0.80859 0.83,0.19167 1.70558,0.30513 2.62891,0.3418 -0.92333,-0.0367 -1.79891,-0.15013 -2.62891,-0.3418 -0.83,-0.19166 -1.6149,-0.46192 -2.35156,-0.80859 9.07332,13.29332 18.18652,26.58134 27.33984,39.86133 2.37,3.42999 5.88063,8.86867 6.64063,11.88867 1.26,4.97999 1.01023,8.78993 0.99023,15.16992 l -0.13086,56.03125 -0.0898,29.96875 c -0.15333,24.62664 -0.22232,40.95381 -0.20899,48.98047 0.007,2.8 -0.61776,5.44922 -1.87109,7.94922 l 40.06055,0.0117 c -2.08667,-0.98667 -4.05373,-2.24792 -5.90039,-3.78125 -7.59,-6.32 -3.26929,-18.14946 6.9707,-18.18946 34.7333,-0.11333 57.81668,-0.13388 69.25,-0.0605 10.97999,0.06 14.70921,13.17977 6.44922,19.00976 -1.74667,1.23334 -2.93193,2.17055 -3.5586,2.81055 l 38.47852,0.15039 c -1.02,-2.64666 -1.53549,-5.19706 -1.54883,-7.65039 -0.0533,-15.24665 -0.16031,-30.61916 -0.32031,-46.11914 l 0.0801,-30.85156 -0.16016,-47.56836 c -0.19333,-10.32666 -0.24062,-16.98404 -0.14062,-19.97071 0.16,-4.69999 1.32667,-8.61047 3.5,-11.73046 4.61999,-6.62666 9.21149,-13.2728 13.77148,-19.93946 13.68665,-19.95331 27.22582,-40.00374 40.61914,-60.15039 3.61,-5.41999 7.41009,-9.65039 14.08008,-9.65039 22.33331,-0.0133 44.66669,-0.037 67,-0.0703 5.95999,-0.007 9.87667,-0.23922 11.75,-0.69922 9.47999,-2.34666 15.56024,-8.12342 18.24023,-17.33008 l 0.0449,-2.95117 c 0.15963,-0.93031 0.19014,-1.90788 0.0449,-2.94922 -0.22,-1.68 -0.60373,-3.34977 -1.15039,-5.00976 -3.74,-11.32666 -7.51985,-22.53249 -11.33985,-33.61915 l -10.7207,-31.91992 c -2.42,-6.97998 -4.80177,-13.96762 -7.14844,-20.96093 -1.97998,-5.91 -3.71978,-10.41899 -8.50976,-12.70899 -9.17332,-4.39332 -19.63732,-8.98172 -31.39063,-13.76172 -3.39936,-1.3825 -6.84705,-2.23906 -10.22656,-2.31054 -4.34509,-0.0919 -8.5775,1.11601 -12.45313,4.18164 -3.95998,3.12665 -6.38481,7.09992 -7.27148,11.91992 -1.77,13.18996 7.20088,26.04015 21.38086,24.16015 3.43,-0.46 7.28994,-1.77093 10.41992,-1.46093 5.10666,0.50666 8.55628,3.32762 10.34961,8.46093 2.05333,5.87333 5.49675,16.79623 10.33008,32.76954 1.62666,4.74666 3.12977,9.51721 4.50977,14.31054 1.73999,6.03333 0.61752,10.77714 -3.36915,14.23047 -6.34999,5.52 -13.4093,3.82007 -18.77929,-1.91992 -1.85,-1.97 -3.54118,-5.10031 -6.45117,-5.57031 -8.12,-1.29 -22.16978,-1.05031 -29.50977,3.67968 -4.04666,2.6 -8.00753,4.02287 -11.88086,4.26954 -3.23,-4.41 -6.34852,-9.31055 -9.72852,-12.81055 -15.02996,-15.52998 -38.7116,-16.34014 -56.60156,-5.16016 -4.45998,2.79 -11.1197,9.4018 -16.67968,10.5918 -7.54,1.62 -14.01032,-5.02088 -14.32032,-12.38086 -0.35544,-8.38197 -0.38936,-19.68261 -0.13086,-33.64648 0.009,-0.0208 0.0292,-0.0351 0.0371,-0.0566 0.11366,-0.30794 0.10461,-0.68982 -0.0254,-1.14649 0.12,-3.15333 0.87,-5.46302 2.25,-6.92969 7.21997,-7.69997 15.05914,-15.39073 15.11914,-27.2207 0.0533,-10.58664 -0.0629,-21.19058 -0.34961,-31.81055 -0.55333,-4.97331 -2.14598,-9.6524 -4.77929,-14.03906 -9.2431,-13.15309 -24.32946,-18.90304 -39.70704,-18.98437 z m 9.3418,99.0332 c 0.62527,-0.007 1.25,0.004 1.875,0.041 -1.25,-0.075 -2.49945,-0.0421 -3.75195,0.0254 0.62619,-0.0337 1.25168,-0.0592 1.87695,-0.0664 z m -44.16015,2.69922 c 0.11003,-0.005 0.2288,0.005 0.35546,0.0312 -0.25333,-0.0533 -0.47349,-0.0421 -0.66015,0.0312 0.0933,-0.0367 0.19465,-0.0572 0.30469,-0.0625 z m 4.94335,1.5625 c 0.0219,0 0.0394,0.0124 0.0527,0.0391 -0.0267,-0.0533 -0.0709,-0.0533 -0.13086,0 0.03,-0.0267 0.0562,-0.0391 0.0781,-0.0391 z m 221.35352,21.17968 a 0.15,0.15 0 0 1 0.12891,0.13868 0.15,0.15 0 0 0 -0.29102,-0.0391 0.15,0.15 0 0 1 0.16211,-0.0996 z m -195.0625,22.57227 c 7.04499,0.59004 13.67023,6.22768 10.99024,16.59766 -5.13,12.52998 -22.87001,11.92983 -24.5,-2.91016 -1,-9.81998 6.46477,-14.27754 13.50976,-13.6875 z m 127.86133,6.52734 a 0.09,0.09 0 0 0 -0.11133,0.14063 0.09,0.09 0 0 1 0.11133,-0.14063 z m -13.31836,4.14454 c -2.97719,0.4625 -5.93328,1.1857 -8.91797,1.6582 2.98472,-0.47265 5.94076,-1.19556 8.91797,-1.6582 z m -65.26367,3.73828 c -1.70813,0.003 -3.37625,0.37625 -4.71875,0.40625 1.3425,-0.03 3.01071,-0.40304 4.71875,-0.40625 z m 40.75586,57.85742 c 4.52062,-0.21609 8.8832,3.10954 9.5957,8.26953 1.5,10.83999 -12.20923,22.51086 -20.69922,27.38086 -13.99998,8.18999 -27.4408,7.59828 -42.55078,6.73828 -7.01999,-0.41 -12.60047,-2.68891 -14.23047,-10.12891 -0.64666,-2.96666 0.10334,-5.71047 2.25,-8.23046 1.79333,-2.11334 3.78714,-3.19357 5.98047,-3.24024 6.83333,-0.15333 13.66667,-0.18318 20.5,-0.0898 4.84,0.07 9.28907,-0.29039 13.78906,-2.15039 6.22,-2.58 11.49365,-6.43503 15.82032,-11.56836 2.73999,-3.24667 4.44156,-5.08815 5.10156,-5.52149 1.4125,-0.9225 2.93648,-1.38695 4.44336,-1.45898 z m -182.65039,0.27344 c 2.60765,0.104 5.19406,1.1939 6.94531,3.3164 3.12,3.77333 5.16109,6.14271 6.12109,7.10938 6.87333,6.93332 15.26327,10.3376 25.16992,10.21093 6.84,-0.0867 13.67334,-0.14635 20.5,-0.17968 4.33333,-0.02 7.52675,1.73 9.58008,5.25 5.24,17.27998 -15.38032,16.90867 -25.57031,16.88867 -10.34999,-0.02 -18.02024,-0.45954 -26.49023,-4.51953 -10.03333,-4.80666 -18.02405,-11.67605 -23.97071,-20.60938 -1.6,-3.40666 -2.17518,-6.7338 -1.72851,-9.98047 0.69375,-5.09374 5.09727,-7.65966 9.44336,-7.48632 z m -8.77735,17.39453 c 0.0858,0.1775 0.21745,0.27112 0.39453,0.2832 -0.17708,-0.0121 -0.30869,-0.1057 -0.39453,-0.2832 z m 119.88282,4.92187 c -0.90625,0.13 -1.81891,0.38008 -2.62891,0.33008 0.81,0.05 1.72266,-0.20008 2.62891,-0.33008 z m 5.4707,0.58985 c -0.02,0.18666 -0.10024,0.29364 -0.24024,0.32031 -0.21333,0.0267 -0.3831,-0.0443 -0.50976,-0.21094 0.12666,0.16667 0.29643,0.23761 0.50976,0.21094 0.14,-0.0267 0.22024,-0.13365 0.24024,-0.32031 z m -38.58789,0.77148 c -1.4425,0.23375 -2.92711,0.4475 -4.41211,0.4375 1.485,0.01 2.96961,-0.20375 4.41211,-0.4375 z m -15.25391,34.29883 57.69922,0.0996 a 10.09,10.09 0 0 1 10.07227,10.10742 v 0.70117 a 10.09,10.09 0 0 1 -10.10743,10.07227 l -57.70117,-0.10156 A 10.09,10.09 0 0 1 318.66598,426.1169 l 0.002,-0.69922 a 10.09,10.09 0 0 1 10.10742,-10.07226 z m -13.72851,32.15039 c -0.0267,0.0867 -0.0833,0.11341 -0.16993,0.0801 0.0867,0.0333 0.14326,0.007 0.16993,-0.0801 z m 68.63085,5.70898 c 2.65334,-0.02 5.00217,0.2773 7.04883,0.89063 4.16,2.56666 6.01388,6.07597 5.56055,10.5293 -0.66,6.50999 -5.69001,8.90039 -12,8.90039 -17.19332,0.007 -34.38676,0.0396 -51.58008,0.0996 -4.34666,0.0133 -7.37651,-0.47232 -9.08984,-1.45899 -6.07,-3.51 -6.40085,-14.49117 0.61914,-17.70117 1.84,-0.54 3.19078,-0.81365 4.05078,-0.82031 18.45998,-0.14 36.92398,-0.28612 55.39062,-0.43946 z m -24.76757,38.39454 c 8.87499,-0.0133 17.75029,0.005 26.62695,0.0547 5.14666,0.0267 8.61682,2.1635 10.41016,6.41016 1.57333,5.45999 0.36557,9.57823 -3.6211,12.35156 -2.50999,1.74 -6.97906,2.02977 -9.78906,2.00977 -17.49998,-0.13334 -35.00002,-0.0911 -52.5,0.1289 -8.51999,0.1 -12.52078,-6.5604 -10.80078,-14.40039 2.23,-6.31999 7.41079,-6.36992 13.05078,-6.41992 8.87332,-0.0767 17.74806,-0.12143 26.62305,-0.13476 z"
       style="fill:url(#linearGradient167)" />
    <path
       id="path88"
       d="m 361.42574,114.00168 c -5.88772,0.0566 -11.81306,0.74672 -17.63867,2.07422 -6.07332,1.38666 -12.07955,3.02154 -18.01953,4.9082 -6.72998,2.15 -14.02024,4.47047 -19.49024,2.23047 -6.77998,-2.77 -10.58056,-8.24039 -18.31054,-3.15039 -8.64998,5.68998 -12.12016,18.6008 -12.41016,28.55078 -0.30667,10.68665 1.81778,19.98708 6.37109,27.90039 1.23,2.23 2.42844,3.97039 2.39844,6.65039 -0.15333,10.41998 -0.14208,18.81924 0.0312,25.19922 0.06,2.3 0.47977,4.97287 1.25977,8.01953 3.06,9.22998 8.54072,16.53072 15.2207,23.4707 2.51,2.6 1.39945,8.08954 1.18945,11.51954 -0.0267,0.37333 -0.19953,0.46596 -0.51953,0.27929 -3.21998,-1.82666 -5.30643,-2.97588 -6.25976,-3.44922 -21.71996,-10.78998 -48.80129,-7.62988 -67.53125,7.58008 -1.56,1.26667 -3.99722,3.62366 -7.31055,7.07031 -0.25333,0.26667 -0.54867,0.33566 -0.88867,0.20899 -10.21998,-3.7 -19.83113,-4.77836 -30.62109,-3.06836 a 0.54,0.54 0 0 1 -0.59961,-0.66992 l 3.39062,-12.83008 a 0.72,0.72 0 0 1 0.78906,-0.53125 c 21.08996,2.62 39.62041,-11.94051 45.65039,-31.48047 4.26,-18.03996 -1.06033,-35.02002 -15.32031,-46.5 -12.83331,-10.33998 -27.97329,-12.30199 -45.41992,-5.88867 -13.04664,4.79332 -23.71644,9.15961 -32.00977,13.09961 -5.15998,2.44666 -9.90381,6.22961 -14.23046,11.34961 -3.4,4.29332 -5.96279,8.90031 -7.68946,13.82031 -4.97998,14.19331 -11.31645,32.8302 -19.00976,55.91016 l -7.599607,22.26953 c -0.97334,2.75998 -1.96404,5.56659 -2.97071,8.41992 -5.93331,16.81996 -4.00735,31.45994 5.7793,43.91992 8.719977,11.08998 21.960877,18.53 36.130857,18.5 22.66662,-0.06 45.63687,-0.0898 68.91016,-0.0898 a 3.2,3.2 0 0 1 2.65039,1.41015 c 13.91996,20.53996 28.01266,41.15012 42.27929,61.83008 3.28667,4.76666 6.3793,9.6535 9.2793,14.66016 2.62,4.52998 1.3318,10.54986 1.3418,15.58984 0.04,43.85992 0.008,87.72016 -0.0918,131.58008 -0.01,5.13998 3.85047,9.81031 8.98047,10.82031 4.73332,0.93333 8.9062,-0.69111 12.51953,-4.87109 1.25333,-2.5 1.87776,-5.14922 1.87109,-7.94922 -0.0133,-8.02665 0.0557,-24.35385 0.20899,-48.98047 l 0.0898,-29.96875 0.13086,-56.03125 c 0.02,-6.37998 0.26977,-10.18994 -0.99023,-15.16992 -0.76,-3.02 -4.27063,-8.45869 -6.64063,-11.88867 -9.15331,-13.27998 -18.26653,-26.56802 -27.33984,-39.86133 -12.37331,-18.13996 -20.5493,-30.23264 -24.5293,-36.2793 -3.44665,-5.23332 -8.25327,-7.82286 -14.41992,-7.76953 -23.91996,0.2 -47.83671,0.26589 -71.75,0.19922 -12.53998,-0.03 -23.18938,-9.3608 -23.85938,-22.05078 0.007,-2.41333 0.31016,-4.56256 0.91016,-6.44922 1.76,-5.52665 4.54605,-13.7736 8.35938,-24.74023 l 1.58007,-4.76954 c 9.90665,-28.85327 16.96637,-49.69288 21.17969,-62.51953 0.74,-2.24665 1.79039,-4.10984 3.15039,-5.58984 2.54667,-2.09333 6.10946,-4.10459 10.68946,-6.03125 8.04664,-3.38 16.14746,-6.62381 24.30078,-9.73047 8.10998,-3.08 16.01,-3.93945 23.25,1.81055 9.97998,7.90998 9.67929,22.58033 1.27929,31.32031 -7.03998,6.14998 -13.85939,5.11014 -22.35937,3.41016 -7.55998,-1.51 -12.58,3.30009 -14.75,10.08007 -4.21333,13.18665 -8.26994,25.81732 -12.16992,37.89063 -2.36,7.13998 -5.21,13.76883 -0.25,20.54883 1.5,2.06 3.43526,3.41698 5.80859,4.07031 7.18998,1.98 12.78016,-2.93047 16.41016,-8.48047 2.54998,-3.91998 20.18078,-2.37898 24.30078,-1.45898 4.92998,1.11 9.94078,3.60953 14.55078,6.01953 1.82666,0.96 3.91311,1.37976 6.25976,1.25976 4.12,-4.65998 7.9701,-10.45945 12.08008,-14.18945 9.37998,-8.51331 20.38932,-12.15325 33.0293,-10.91992 13.33998,1.3 21.05916,6.66008 30.86914,13.83008 5.85998,4.27998 11.15002,6.32859 17.25,2.05859 5.22,-3.65 5.4107,-9.65916 5.4707,-15.86914 0.1,-9.82665 0.17404,-19.63947 0.22071,-29.43945 -0.41,-5.89 -4.2911,-9.40088 -8.3711,-13.63086 -3.02665,-3.46 -5.08325,-6.21 -6.16992,-8.25 -2.73,-5.13 -2.43015,-10.07041 -2.41015,-17.65039 0.02,-5.78 0.0498,-11.5424 0.0898,-17.28907 0.0467,-3.23332 -0.61185,-6.19729 -1.97852,-8.89062 -1.93998,-3.4 -4.2814,-6.87969 -5.4414,-10.42969 -1.48,-4.52665 -2.20636,-9.14914 -2.17969,-13.86914 0,-0.38 0.18103,-0.50752 0.54101,-0.38086 14.98998,5.36 28.33903,-1.63961 44.45899,-6.09961 20.52996,-5.68998 44.70057,-1.71988 57.56055,16.58008 2.63332,4.38666 4.22596,9.06574 4.77929,14.03906 0.28667,10.61998 0.40295,21.2239 0.34961,31.81055 -0.06,11.82998 -7.89916,19.52072 -15.11914,27.2207 -1.38,1.46667 -2.13,3.77636 -2.25,6.92969 -0.28666,14.58664 -0.24752,26.20296 0.11914,34.84961 0.31,7.35998 6.78032,14.00086 14.32032,12.38086 5.55998,-1.19 12.2197,-7.8018 16.67968,-10.5918 17.88996,-11.17998 41.5716,-10.36982 56.60156,5.16016 3.38,3.5 6.49852,8.40055 9.72852,12.81055 3.87333,-0.24667 7.8342,-1.66954 11.88086,-4.26954 7.33998,-4.72998 21.38977,-4.96968 29.50977,-3.67968 2.90998,0.47 4.60117,3.60031 6.45117,5.57031 5.36998,5.73998 12.42931,7.43992 18.77929,1.91992 3.98667,-3.45333 5.10913,-8.19714 3.36915,-14.23047 -1.38,-4.79332 -2.88311,-9.56389 -4.50977,-14.31054 -4.83333,-15.97331 -8.27675,-26.89621 -10.33008,-32.76954 -1.79333,-5.13331 -5.24295,-7.95427 -10.34961,-8.46093 -3.12998,-0.31 -6.98992,1.00093 -10.41992,1.46093 -14.17998,1.88 -23.15086,-10.97019 -21.38086,-24.16015 0.88667,-4.82 3.3115,-8.79327 7.27148,-11.91992 6.89,-5.45 14.90971,-5.03108 22.67969,-1.8711 11.75331,4.78 22.21731,9.3684 31.39063,13.76172 4.78998,2.29 6.52978,6.79899 8.50976,12.70899 2.34667,6.99331 4.72844,13.98095 7.14844,20.96093 l 10.7207,31.91992 c 3.82,11.08665 7.59985,22.2925 11.33985,33.61915 0.54666,1.65998 0.93039,3.32976 1.15039,5.00976 l -0.0898,5.90039 c -2.67998,9.20665 -8.76025,14.98342 -18.24023,17.33008 -1.87333,0.46 -5.79002,0.69255 -11.75,0.69922 -22.33329,0.0333 -44.66671,0.057 -67,0.0703 -6.66998,0 -10.47008,4.23041 -14.08008,9.65039 -13.3933,20.14663 -26.9325,40.1971 -40.61914,60.15039 -4.55998,6.66666 -9.1515,13.3128 -13.77148,19.93946 -2.17333,3.11998 -3.34,7.03048 -3.5,11.73046 -0.1,2.98667 -0.0527,9.64406 0.14062,19.97071 l 0.16016,47.56836 -0.0801,30.85156 c 0.16,15.49996 0.26698,30.87251 0.32031,46.11914 0.0133,2.45333 0.52883,5.00373 1.54883,7.65039 2.25333,2.45333 3.98784,3.89055 5.20117,4.31055 7.3,2.50998 14.87946,-1.53071 16.18946,-8.97071 0.0867,-0.49333 0.13085,-3.66 0.13085,-9.5 -0.007,-44.25323 -0.10744,-88.50961 -0.30078,-132.76953 -0.01,-3.51998 0.61071,-5.70142 2.47071,-8.4414 15.94663,-23.42663 31.86336,-46.87942 47.75,-70.35938 0.8,-1.2 1.94976,-3.44017 3.25976,-4.91015 0.24,-0.26 0.53729,-0.39063 0.89063,-0.39063 20.19329,0 40.39608,0.0267 60.60937,0.0801 8.87332,0.0267 15.3024,-0.44659 19.28907,-1.41992 10.8533,-2.64667 19.8049,-8.58505 26.85156,-17.81836 8.91998,-11.68665 11.1227,-24.83477 6.60937,-39.44141 l -0.63086,-2.08008 -23.65039,-69 c -4.79998,-15.03996 -8.69877,-29.30908 -20.46875,-38.78906 -3.28665,-2.64666 -9.12311,-5.75366 -17.50976,-9.32031 -7.54666,-3.20667 -15.13002,-6.3373 -22.75,-9.39063 -4.92,-1.97332 -8.85722,-3.11325 -11.81055,-3.41992 -21.85996,-2.28 -42.09008,9.77981 -48.08008,31.25977 -6.77998,23.97994 4.80067,46.74986 28.64063,54.58984 6.10998,2.01 9.91861,1.50063 15.55859,1.39063 a 1,1.01 81 0 1 0.99024,0.71093 l 3.96093,12.76953 a 0.49,0.48 85.4 0 1 -0.53125,0.62891 c -10.23998,-1.51333 -20.22567,-0.59161 -29.95898,2.76172 a 1.54,1.55 59.4 0 1 -1.64063,-0.41016 c -20.91986,-22.78999 -54.15925,-26.80032 -80.52919,-10.82036 a 0.26,0.26 0 0 1 -0.39063,-0.2207 c 0.02,-3.06 0.0797,-6.1321 0.17969,-9.21875 0.0333,-0.92667 0.26475,-1.61388 0.6914,-2.06055 8.56,-9.06998 15.90963,-20.26041 16.84961,-33.15039 0.36,-4.96666 0.30342,-16.63337 -0.16992,-35 -0.20666,-8.23332 -2.2838,-16.0008 -6.23047,-23.30078 -13.11371,-23.16433 -37.93767,-34.80768 -63.45117,-34.5625 z m -4.09179,170.77344 c -6.62137,0.0395 -13.125,4.53399 -12.1875,13.74023 1.62999,14.83999 19.37,15.44014 24.5,2.91016 2.84749,-11.01812 -4.80829,-16.6952 -12.3125,-16.65039 z m 263.32031,3.6289 c 0.0425,10e-4 0.0892,0.0113 0.14258,0.0312 -0.10667,-0.04 -0.19058,-0.0428 -0.25391,-0.008 0.0317,-0.0175 0.0688,-0.0247 0.11133,-0.0234 z m -0.23633,0.24024 c -0.0234,0.13558 -0.009,0.27973 0,0.42187 -0.005,-0.0218 -0.009,-0.044 -0.0195,-0.0644 0.003,0.0801 0.006,0.16189 0.0195,0.24414 0.0267,-0.0933 0.0182,-0.17891 -0.0234,-0.25391 0.002,0.003 0.002,0.007 0.004,0.01 -0.004,-0.12122 -5.4e-4,-0.24104 0.0195,-0.35742 z m -1.60742,1.20898 a 0.25,0.39 60.5 0 1 0.11328,0.008 0.25,0.39 60.5 0 0 -0.40625,0.21485 0.25,0.39 60.5 0 1 0.29297,-0.22266 z m -170.11914,67.24219 c -1.50688,0.072 -3.03086,0.53648 -4.44336,1.45898 -0.66,0.43334 -2.36158,2.27482 -5.10156,5.52149 -4.32667,5.13332 -9.60032,8.98836 -15.82032,11.56836 -4.49998,1.86 -8.94906,2.22039 -13.78906,2.15039 -6.83332,-0.0933 -13.66668,-0.0635 -20.5,0.0898 -2.19333,0.0467 -4.18714,1.1269 -5.98047,3.24024 -2.14666,2.51998 -2.89666,5.26381 -2.25,8.23046 1.63,7.44 7.21049,9.71891 14.23047,10.12891 15.10996,0.86 28.55082,1.4517 42.55078,-6.73828 8.48998,-4.86996 22.19922,-16.54084 20.69922,-27.38082 -0.7125,-5.15998 -5.07509,-8.48562 -9.5957,-8.26953 z m -182.65039,0.27344 c -4.34609,-0.17334 -8.74961,2.39259 -9.44336,7.48632 -0.44667,3.24667 0.12851,6.57382 1.72851,9.98047 5.94666,8.93332 13.93739,15.80272 23.97071,20.60938 8.46998,4.05998 16.14025,4.49953 26.49023,4.51953 10.18998,0.02 30.81031,0.39129 25.57031,-16.88867 -2.05333,-3.52 -5.24675,-5.27 -9.58008,-5.25 -6.82665,0.0333 -13.66,0.093 -20.5,0.17968 -9.90664,0.12667 -18.29659,-3.27762 -25.16992,-10.21093 -0.96,-0.96667 -3.00109,-3.33605 -6.12109,-7.10938 -1.75125,-2.1225 -4.33767,-3.2124 -6.94531,-3.3164 z m 62.73437,57.97656 c -5.58984,-0.01 -10.09766,4.48242 -10.10742,10.07226 l -0.002,0.69922 c -0.01,5.58985 4.48242,10.09767 10.07226,10.10743 l 57.70117,0.10156 c 5.58985,0.01 10.09767,-4.48242 10.10743,-10.07227 v -0.70117 c 0.01,-5.58985 -4.48242,-10.09767 -10.07227,-10.10742 z m 54.90234,37.85937 c -18.46664,0.15334 -36.93064,0.29946 -55.39062,0.43946 -0.86,0.007 -2.21078,0.28031 -4.05078,0.82031 -7.01999,3.21 -6.68914,14.19117 -0.61914,17.70117 1.71333,0.98667 4.74318,1.47232 9.08984,1.45899 17.19332,-0.06 34.38676,-0.0929 51.58008,-0.0996 6.30999,0 11.34,-2.3904 12,-8.90039 0.45333,-4.45333 -1.40055,-7.96264 -5.56055,-10.5293 -2.04666,-0.61333 -4.39549,-0.91063 -7.04883,-0.89063 z m -24.76757,38.39454 c -8.87499,0.0133 -17.74973,0.0581 -26.62305,0.13476 -5.63999,0.05 -10.82078,0.0999 -13.05078,6.41992 -1.72,7.83999 2.28079,14.50039 10.80078,14.40039 17.49998,-0.22 35.00002,-0.26224 52.5,-0.1289 2.81,0.02 7.27907,-0.26977 9.78906,-2.00977 3.98667,-2.77333 5.19443,-6.89157 3.6211,-12.35156 -1.79334,-4.24666 -5.2635,-6.38349 -10.41016,-6.41016 -8.87666,-0.05 -17.75196,-0.068 -26.62695,-0.0547 z m 7.24023,66.65624 c -11.54165,0.01 -25.99663,0.043 -43.36328,0.0996 -10.23999,0.04 -14.5607,11.86946 -6.9707,18.18946 1.84666,1.53333 3.81372,2.79458 5.90039,3.78125 l 73.21093,-0.21093 c 0.62667,-0.64 1.81193,-1.57721 3.5586,-2.81055 8.25999,-5.82999 4.53077,-18.94976 -6.44922,-19.00976 -5.71666,-0.0367 -14.34506,-0.0491 -25.88672,-0.0391 z"
       style="fill:url(#radialGradient182)" />
  </g>
</svg>
