<?xml version="1.0" encoding="UTF-8" standalone="no"?>
<svg
   version="1.1"
   viewBox="0.00 0.00 1024.00 1024.00"
   id="svg115"
   sodipodi:docname="brand.svg"
   xmlns:inkscape="http://www.inkscape.org/namespaces/inkscape"
   xmlns:sodipodi="http://sodipodi.sourceforge.net/DTD/sodipodi-0.dtd"
   xmlns:xlink="http://www.w3.org/1999/xlink"
   xmlns="http://www.w3.org/2000/svg"
   xmlns:svg="http://www.w3.org/2000/svg">
  <defs
     id="defs115">
    <linearGradient
       id="linearGradient178"
       inkscape:collect="always">
      <stop
         style="stop-color:#7d0044;stop-opacity:1;"
         offset="0"
         id="stop179" />
      <stop
         style="stop-color:#5c0045;stop-opacity:1;"
         offset="0.22477064"
         id="stop181" />
      <stop
         style="stop-color:#3f0047;stop-opacity:1;"
         offset="0.54204893"
         id="stop182" />
      <stop
         style="stop-color:#180043;stop-opacity:1;"
         offset="1"
         id="stop180" />
    </linearGradient>
    <linearGradient
       id="linearGradient166"
       inkscape:collect="always">
      <stop
         style="stop-color:#fe9637;stop-opacity:1;"
         offset="0"
         id="stop166" />
      <stop
         style="stop-color:#ff743f;stop-opacity:1;"
         offset="0.11276758"
         id="stop173" />
      <stop
         style="stop-color:#ff6243;stop-opacity:1;"
         offset="0.20279051"
         id="stop174" />
      <stop
         style="stop-color:#ff4f48;stop-opacity:1;"
         offset="0.32272553"
         id="stop175" />
      <stop
         style="stop-color:#ff3d4f;stop-opacity:1;"
         offset="0.45150039"
         id="stop176" />
      <stop
         style="stop-color:#fc235e;stop-opacity:1;"
         offset="0.60304379"
         id="stop177" />
      <stop
         style="stop-color:#ca2176;stop-opacity:1;"
         offset="0.75985521"
         id="stop178" />
      <stop
         style="stop-color:#802fa7;stop-opacity:1;"
         offset="0.9044342"
         id="stop172" />
      <stop
         style="stop-color:#4744e2;stop-opacity:1;"
         offset="1"
         id="stop168" />
    </linearGradient>
    <linearGradient
       inkscape:collect="always"
       xlink:href="#linearGradient166"
       id="linearGradient167"
       x1="508.33597"
       y1="330.04214"
       x2="514.37854"
       y2="755.31372"
       gradientUnits="userSpaceOnUse" />
    <radialGradient
       inkscape:collect="always"
       xlink:href="#linearGradient178"
       id="radialGradient182"
       cx="493.24811"
       cy="329.16174"
       fx="493.24811"
       fy="329.16174"
       r="267.05728"
       gradientTransform="matrix(0.98766715,-0.15656818,0.06470393,0.4081669,-15.214906,295.26188)"
       gradientUnits="userSpaceOnUse" />
  </defs>
  <sodipodi:namedview
     id="namedview115"
     pagecolor="#ffffff"
     bordercolor="#000000"
     borderopacity="0.25"
     inkscape:showpageshadow="2"
     inkscape:pageopacity="0.0"
     inkscape:pagecheckerboard="0"
     inkscape:deskcolor="#d1d1d1" />
  <rect
     style="fill:#000000;stroke-width:1.34659"
     id="rect126"
     width="1658.9712"
     height="824.57745"
     x="104.05382"
     y="107.98038"
     inkscape:label="rect126" />
  <path
     id="path101"
     d="M 660 217.09961 C 560.08677 217.02628 460.1699 217.08906 360.25 217.28906 C 356.23 217.29573 350.89666 217.78333 344.25 218.75 C 304.17671 224.54999 271.56966 242.87717 246.42969 273.73047 C 228.57971 295.64045 217.54937 323.77909 214.10938 352.03906 C 213.54938 356.66572 213.25404 363.31691 213.2207 371.99023 C 213.1407 392.34355 213.1469 412.69242 213.24023 433.03906 C 213.2269 506.10566 213.2269 579.17674 213.24023 652.25 C 213.24023 661.28999 213.4069 667.95047 213.74023 672.23047 C 218.66023 735.60041 259.09084 789.3208 320.80078 807.05078 C 333.3941 810.67078 344.54334 812.48047 354.25 812.48047 C 459.66323 812.5138 565.0832 812.5076 670.50977 812.46094 C 678.98309 812.45427 685.63428 812.17247 690.46094 811.61914 C 742.26089 805.66915 785.86955 772.34925 806.26953 724.5293 C 814.03952 706.32932 819.25922 686.26998 819.69922 666.75 C 820.18922 644.57002 819.69953 606.58973 819.76953 567.00977 C 819.84953 521.51648 819.84643 476.02568 819.75977 430.53906 C 819.7931 412.02575 819.7807 393.51331 819.7207 375 C 819.69404 366.10001 819.44404 359.44263 818.9707 355.0293 C 815.13071 319.47933 799.4399 286.38005 774.41992 261.33008 C 749.97995 236.85677 720.71244 222.42572 686.61914 218.03906 C 678.17915 216.94906 668.89999 217.10961 660 217.09961 z M 249.5957 476.82227 L 249.5957 487.99414 C 249.11852 484.40263 249.12617 480.67635 249.5957 476.82227 z M 419.20312 753.58594 L 613.33398 753.58594 C 611.72055 760.62487 604.41316 764.39971 597.32031 761.96094 C 596.10698 761.54094 594.37247 760.10372 592.11914 757.65039 L 553.64062 757.5 L 480.42969 757.71094 L 440.36914 757.69922 C 436.75581 761.87921 432.58294 763.50364 427.84961 762.57031 C 423.35307 761.68503 419.99733 757.94687 419.20312 753.58594 z "
     style="fill:#ffffff" />
  <path
     id="path116"
     d="M 520.95312 315.16602 C 514.93583 315.13419 508.87365 315.97 503.09961 317.57031 C 486.97967 322.03031 473.63059 329.02992 458.64062 323.66992 C 458.28065 323.54326 458.09961 323.67078 458.09961 324.05078 C 458.07294 328.77078 458.7993 333.39328 460.2793 337.91992 C 461.4393 341.46992 463.78073 344.94961 465.7207 348.34961 C 467.08737 351.04294 467.74589 354.00692 467.69922 357.24023 C 467.65922 362.9869 467.62935 368.7493 467.60938 374.5293 C 467.58938 382.10927 467.28953 387.04969 470.01953 392.17969 C 471.1062 394.21969 473.16281 396.96969 476.18945 400.42969 C 480.26945 404.65966 484.15055 408.17055 484.56055 414.06055 C 484.51388 423.86053 484.43984 433.67335 484.33984 443.5 C 484.27984 449.70998 484.08914 455.71914 478.86914 459.36914 C 472.76916 463.63914 467.47912 461.59053 461.61914 457.31055 C 451.80916 450.14055 444.08998 444.78047 430.75 443.48047 C 418.11002 442.24714 407.10068 445.88708 397.7207 454.40039 C 393.61072 458.13039 389.76062 463.92986 385.64062 468.58984 C 383.29396 468.70984 381.20752 468.29008 379.38086 467.33008 C 374.77086 464.92008 369.76007 462.42055 364.83008 461.31055 C 360.71008 460.39055 343.07929 458.84954 340.5293 462.76953 C 336.8993 468.31953 331.30913 473.23 324.11914 471.25 C 321.74581 470.59667 319.81055 469.23969 318.31055 467.17969 C 313.35055 460.39969 316.20055 453.77085 318.56055 446.63086 C 322.46053 434.55755 326.51714 421.92688 330.73047 408.74023 C 332.90047 401.96025 337.92049 397.15016 345.48047 398.66016 C 353.98045 400.36014 360.79986 401.39998 367.83984 395.25 C 376.23984 386.51002 376.54053 371.83967 366.56055 363.92969 C 362.94055 361.05469 359.15545 359.83164 355.26172 359.71289 C 351.36797 359.59414 347.36553 360.57914 343.31055 362.11914 C 335.15723 365.2258 327.05641 368.46961 319.00977 371.84961 C 314.42977 373.77627 310.86698 375.78753 308.32031 377.88086 C 306.96031 379.36086 305.90992 381.22405 305.16992 383.4707 C 300.9566 396.29735 293.89688 417.13696 283.99023 445.99023 L 282.41016 450.75977 C 278.59683 461.72642 275.81078 469.97334 274.05078 475.5 C 273.45078 477.38666 273.14729 479.53589 273.14062 481.94922 C 273.81062 494.63921 284.46001 503.97 297 504 C 320.91331 504.06667 344.83002 504.00078 368.75 503.80078 C 374.91666 503.74745 379.72326 506.33698 383.16992 511.57031 C 387.14992 517.61697 395.3259 529.70963 407.69922 547.84961 C 408.43588 548.19628 409.22078 548.46654 410.05078 548.6582 C 410.88078 548.84987 411.75636 548.96333 412.67969 549 C 411.75636 548.96333 410.88078 548.84987 410.05078 548.6582 C 409.22078 548.46654 408.43588 548.19628 407.69922 547.84961 C 416.77254 561.14293 425.88574 574.43095 435.03906 587.71094 C 437.40906 591.14093 440.91969 596.57961 441.67969 599.59961 C 442.93969 604.5796 442.68992 608.38954 442.66992 614.76953 L 442.53906 670.80078 L 442.44922 700.76953 C 442.29589 725.39617 442.2269 741.72334 442.24023 749.75 C 442.2469 752.55 441.62247 755.19922 440.36914 757.69922 L 480.42969 757.71094 C 478.34302 756.72427 476.37596 755.46302 474.5293 753.92969 C 466.9393 747.60969 471.26001 735.78023 481.5 735.74023 C 516.2333 735.6269 539.31668 735.60635 550.75 735.67969 C 561.72999 735.73969 565.45921 748.85946 557.19922 754.68945 C 555.45255 755.92279 554.26729 756.86 553.64062 757.5 L 592.11914 757.65039 C 591.09914 755.00373 590.58365 752.45333 590.57031 750 C 590.51698 734.75335 590.41 719.38084 590.25 703.88086 L 590.33008 673.0293 L 590.16992 625.46094 C 589.97659 615.13428 589.9293 608.4769 590.0293 605.49023 C 590.1893 600.79024 591.35597 596.87976 593.5293 593.75977 C 598.14929 587.13311 602.74079 580.48697 607.30078 573.82031 C 620.98743 553.867 634.5266 533.81657 647.91992 513.66992 C 651.52992 508.24993 655.33001 504.01953 662 504.01953 C 684.33331 504.0062 706.66669 503.98255 729 503.94922 C 734.95999 503.94255 738.87667 503.71 740.75 503.25 C 750.22999 500.90334 756.31024 495.12658 758.99023 485.91992 L 759.03516 482.96875 C 759.19479 482.03844 759.2253 481.06087 759.08008 480.01953 C 758.86008 478.33953 758.47635 476.66976 757.92969 475.00977 C 754.18969 463.68311 750.40984 452.47728 746.58984 441.39062 L 735.86914 409.4707 C 733.44914 402.49072 731.06737 395.50308 728.7207 388.50977 C 726.74072 382.59977 725.00092 378.09078 720.21094 375.80078 C 711.03762 371.40746 700.57362 366.81906 688.82031 362.03906 C 685.42095 360.65656 681.97326 359.8 678.59375 359.72852 C 674.24866 359.6366 670.01625 360.84453 666.14062 363.91016 C 662.18064 367.03681 659.75581 371.01008 658.86914 375.83008 C 657.09914 389.02004 666.07002 401.87023 680.25 399.99023 C 683.68 399.53023 687.53994 398.2193 690.66992 398.5293 C 695.77658 399.03596 699.2262 401.85692 701.01953 406.99023 C 703.07286 412.86356 706.51628 423.78646 711.34961 439.75977 C 712.97627 444.50643 714.47938 449.27698 715.85938 454.07031 C 717.59937 460.10364 716.4769 464.84745 712.49023 468.30078 C 706.14024 473.82078 699.08093 472.12085 693.71094 466.38086 C 691.86094 464.41086 690.16976 461.28055 687.25977 460.81055 C 679.13977 459.52055 665.08999 459.76024 657.75 464.49023 C 653.70334 467.09023 649.74247 468.5131 645.86914 468.75977 C 642.63914 464.34977 639.52062 459.44922 636.14062 455.94922 C 621.11066 440.41924 597.42902 439.60908 579.53906 450.78906 C 575.07908 453.57906 568.41936 460.19086 562.85938 461.38086 C 555.31938 463.00086 548.84906 456.35998 548.53906 449 C 548.18362 440.61803 548.1497 429.31739 548.4082 415.35352 C 548.41735 415.33272 548.43736 415.31839 548.44531 415.29688 C 548.55897 414.98894 548.54992 414.60706 548.41992 414.15039 C 548.53992 410.99706 549.28992 408.68737 550.66992 407.2207 C 557.88989 399.52073 565.72906 391.82997 565.78906 380 C 565.8424 369.41336 565.72612 358.80942 565.43945 348.18945 C 564.88612 343.21614 563.29347 338.53705 560.66016 334.15039 C 551.41706 320.9973 536.3307 315.24735 520.95312 315.16602 z M 530.29492 414.19922 C 530.92019 414.19205 531.54492 414.20273 532.16992 414.24023 C 530.91992 414.16523 529.67047 414.19814 528.41797 414.26562 C 529.04416 414.23191 529.66965 414.20638 530.29492 414.19922 z M 486.13477 416.89844 C 486.2448 416.89313 486.36357 416.90302 486.49023 416.92969 C 486.2369 416.87635 486.01674 416.8876 485.83008 416.96094 C 485.92341 416.92427 486.02473 416.90375 486.13477 416.89844 z M 491.07812 418.46094 C 491.10001 418.46094 491.11752 418.47334 491.13086 418.5 C 491.10419 418.44667 491.06 418.44667 491 418.5 C 491.03 418.47334 491.05625 418.46094 491.07812 418.46094 z M 712.43164 439.64062 A 0.15 0.15 0 0 1 712.56055 439.7793 A 0.15 0.15 0 0 0 712.26953 439.74023 A 0.15 0.15 0 0 1 712.43164 439.64062 z M 517.36914 462.21289 C 524.41413 462.80293 531.03937 468.44057 528.35938 478.81055 C 523.22938 491.34053 505.48937 490.74038 503.85938 475.90039 C 502.85938 466.08041 510.32415 461.62285 517.36914 462.21289 z M 645.23047 468.74023 A 0.09 0.09 0 0 0 645.11914 468.88086 A 0.09 0.09 0 0 1 645.23047 468.74023 z M 631.91211 472.88477 C 628.93492 473.34727 625.97883 474.07047 622.99414 474.54297 C 625.97886 474.07032 628.9349 473.34741 631.91211 472.88477 z M 566.64844 476.62305 C 564.94031 476.62633 563.27219 476.9993 561.92969 477.0293 C 563.27219 476.9993 564.9404 476.62626 566.64844 476.62305 z M 607.4043 534.48047 C 611.92492 534.26438 616.2875 537.59001 617 542.75 C 618.5 553.58999 604.79077 565.26086 596.30078 570.13086 C 582.3008 578.32085 568.85998 577.72914 553.75 576.86914 C 546.73001 576.45914 541.14953 574.18023 539.51953 566.74023 C 538.87287 563.77357 539.62287 561.02976 541.76953 558.50977 C 543.56286 556.39643 545.55667 555.3162 547.75 555.26953 C 554.58333 555.1162 561.41667 555.08635 568.25 555.17969 C 573.09 555.24969 577.53907 554.8893 582.03906 553.0293 C 588.25906 550.4493 593.53271 546.59427 597.85938 541.46094 C 600.59937 538.21427 602.30094 536.37279 602.96094 535.93945 C 604.37344 535.01695 605.89742 534.5525 607.4043 534.48047 z M 424.75391 534.75391 C 427.36156 534.85791 429.94797 535.94781 431.69922 538.07031 C 434.81922 541.84364 436.86031 544.21302 437.82031 545.17969 C 444.69364 552.11301 453.08358 555.51729 462.99023 555.39062 C 469.83023 555.30396 476.66357 555.24427 483.49023 555.21094 C 487.82356 555.19094 491.01698 556.94094 493.07031 560.46094 C 498.31031 577.74092 477.68999 577.36961 467.5 577.34961 C 457.15001 577.32961 449.47976 576.89007 441.00977 572.83008 C 430.97644 568.02342 422.98572 561.15403 417.03906 552.2207 C 415.43906 548.81404 414.86388 545.4869 415.31055 542.24023 C 416.0043 537.14649 420.40782 534.58057 424.75391 534.75391 z M 415.97656 552.14844 C 416.0624 552.32594 416.19401 552.41956 416.37109 552.43164 C 416.19401 552.41956 416.0624 552.32594 415.97656 552.14844 z M 535.85938 557.07031 C 534.95313 557.20031 534.04047 557.45039 533.23047 557.40039 C 534.04047 557.45039 534.95313 557.20031 535.85938 557.07031 z M 541.33008 557.66016 C 541.31008 557.84682 541.22984 557.9538 541.08984 557.98047 C 540.87651 558.00714 540.70674 557.9362 540.58008 557.76953 C 540.70674 557.9362 540.87651 558.00714 541.08984 557.98047 C 541.22984 557.9538 541.31008 557.84682 541.33008 557.66016 z M 502.74219 558.43164 C 501.29969 558.66539 499.81508 558.87914 498.33008 558.86914 C 499.81508 558.87914 501.29969 558.66539 502.74219 558.43164 z M 487.48828 592.73047 L 545.1875 592.83008 A 10.09 10.09 0 0 1 555.25977 602.9375 L 555.25977 603.63867 A 10.09 10.09 0 0 1 545.15234 613.71094 L 487.45117 613.60938 A 10.09 10.09 0 0 1 477.37891 603.50195 L 477.38086 602.80273 A 10.09 10.09 0 0 1 487.48828 592.73047 z M 473.75977 624.88086 C 473.7331 624.96753 473.67651 624.99427 473.58984 624.96094 C 473.67651 624.99427 473.7331 624.96753 473.75977 624.88086 z M 542.39062 630.58984 C 545.04396 630.56984 547.39279 630.86714 549.43945 631.48047 C 553.59945 634.04713 555.45333 637.55644 555 642.00977 C 554.34 648.51976 549.30999 650.91016 543 650.91016 C 525.80668 650.91682 508.61324 650.94977 491.41992 651.00977 C 487.07326 651.0231 484.04341 650.53745 482.33008 649.55078 C 476.26008 646.04078 475.92923 635.05961 482.94922 631.84961 C 484.78922 631.30961 486.14 631.03596 487 631.0293 C 505.45998 630.8893 523.92398 630.74318 542.39062 630.58984 z M 517.62305 668.98438 C 526.49804 668.97104 535.37334 668.98906 544.25 669.03906 C 549.39666 669.06573 552.86682 671.20256 554.66016 675.44922 C 556.23349 680.90921 555.02573 685.02745 551.03906 687.80078 C 548.52907 689.54078 544.06 689.83055 541.25 689.81055 C 523.75002 689.67721 506.24998 689.71945 488.75 689.93945 C 480.23001 690.03945 476.22922 683.37905 477.94922 675.53906 C 480.17922 669.21907 485.36001 669.16914 491 669.11914 C 499.87332 669.04247 508.74806 668.99771 517.62305 668.98438 z "
     style="fill:url(#linearGradient167)" />
  <path
     id="path88"
     d="m 520.13867,291.38672 c -5.88772,0.0566 -11.81306,0.74672 -17.63867,2.07422 -6.07332,1.38666 -12.07955,3.02154 -18.01953,4.9082 -6.72998,2.15 -14.02024,4.47047 -19.49024,2.23047 -6.77998,-2.77 -10.58056,-8.24039 -18.31054,-3.15039 -8.64998,5.68998 -12.12016,18.6008 -12.41016,28.55078 -0.30667,10.68665 1.81778,19.98708 6.37109,27.90039 1.23,2.23 2.42844,3.97039 2.39844,6.65039 -0.15333,10.41998 -0.14208,18.81924 0.0312,25.19922 0.06,2.3 0.47977,4.97287 1.25977,8.01953 3.06,9.22998 8.54072,16.53072 15.2207,23.4707 2.51,2.6 1.39945,8.08954 1.18945,11.51954 -0.0267,0.37333 -0.19953,0.46596 -0.51953,0.27929 -3.21998,-1.82666 -5.30643,-2.97588 -6.25976,-3.44922 -21.71996,-10.78998 -48.80129,-7.62988 -67.53125,7.58008 -1.56,1.26667 -3.99722,3.62366 -7.31055,7.07031 -0.25333,0.26667 -0.54867,0.33566 -0.88867,0.20899 -10.21998,-3.7 -19.83113,-4.77836 -30.62109,-3.06836 a 0.54,0.54 0 0 1 -0.59961,-0.66992 l 3.39062,-12.83008 a 0.72,0.72 0 0 1 0.78906,-0.53125 c 21.08996,2.62 39.62041,-11.94051 45.65039,-31.48047 4.26,-18.03996 -1.06033,-35.02002 -15.32031,-46.5 -12.83331,-10.33998 -27.97329,-12.30199 -45.41992,-5.88867 -13.04664,4.79332 -23.71644,9.15961 -32.00977,13.09961 -5.15998,2.44666 -9.90381,6.22961 -14.23046,11.34961 -3.4,4.29332 -5.96279,8.90031 -7.68946,13.82031 -4.97998,14.19331 -11.31645,32.8302 -19.00976,55.91016 l -7.59961,22.26953 c -0.97334,2.75998 -1.96404,5.56659 -2.97071,8.41992 -5.93331,16.81996 -4.00735,31.45994 5.7793,43.91992 8.71998,11.08998 21.96088,18.53 36.13086,18.5 22.66662,-0.06 45.63687,-0.0898 68.91016,-0.0898 a 3.2,3.2 0 0 1 2.65039,1.41015 c 13.91996,20.53996 28.01266,41.15012 42.27929,61.83008 3.28667,4.76666 6.3793,9.6535 9.2793,14.66016 2.62,4.52998 1.3318,10.54986 1.3418,15.58984 0.04,43.85992 0.008,87.72016 -0.0918,131.58008 -0.01,5.13998 3.85047,9.81031 8.98047,10.82031 4.73332,0.93333 8.9062,-0.69111 12.51953,-4.87109 1.25333,-2.5 1.87776,-5.14922 1.87109,-7.94922 -0.0133,-8.02665 0.0557,-24.35385 0.20899,-48.98047 l 0.0898,-29.96875 0.13086,-56.03125 c 0.02,-6.37998 0.26977,-10.18994 -0.99023,-15.16992 -0.76,-3.02 -4.27063,-8.45869 -6.64063,-11.88867 -9.15331,-13.27998 -18.26653,-26.56802 -27.33984,-39.86133 -12.37331,-18.13996 -20.5493,-30.23264 -24.5293,-36.2793 -3.44665,-5.23332 -8.25327,-7.82286 -14.41992,-7.76953 -23.91996,0.2 -47.83671,0.26589 -71.75,0.19922 -12.53998,-0.03 -23.18938,-9.3608 -23.85938,-22.05078 0.007,-2.41333 0.31016,-4.56256 0.91016,-6.44922 1.76,-5.52665 4.54605,-13.7736 8.35938,-24.74023 l 1.58007,-4.76954 c 9.90665,-28.85327 16.96637,-49.69288 21.17969,-62.51953 0.74,-2.24665 1.79039,-4.10984 3.15039,-5.58984 2.54667,-2.09333 6.10946,-4.10459 10.68946,-6.03125 8.04664,-3.38 16.14746,-6.62381 24.30078,-9.73047 8.10998,-3.08 16.01,-3.93945 23.25,1.81055 9.97998,7.90998 9.67929,22.58033 1.27929,31.32031 -7.03998,6.14998 -13.85939,5.11014 -22.35937,3.41016 -7.55998,-1.51 -12.58,3.30009 -14.75,10.08007 -4.21333,13.18665 -8.26994,25.81732 -12.16992,37.89063 -2.36,7.13998 -5.21,13.76883 -0.25,20.54883 1.5,2.06 3.43526,3.41698 5.80859,4.07031 7.18998,1.98 12.78016,-2.93047 16.41016,-8.48047 2.54998,-3.91998 20.18078,-2.37898 24.30078,-1.45898 4.92998,1.11 9.94078,3.60953 14.55078,6.01953 1.82666,0.96 3.91311,1.37976 6.25976,1.25976 4.12,-4.65998 7.9701,-10.45945 12.08008,-14.18945 9.37998,-8.51331 20.38932,-12.15325 33.0293,-10.91992 13.33998,1.3 21.05916,6.66008 30.86914,13.83008 5.85998,4.27998 11.15002,6.32859 17.25,2.05859 5.22,-3.65 5.4107,-9.65916 5.4707,-15.86914 0.1,-9.82665 0.17404,-19.63947 0.22071,-29.43945 -0.41,-5.89 -4.2911,-9.40088 -8.3711,-13.63086 -3.02665,-3.46 -5.08325,-6.21 -6.16992,-8.25 -2.73,-5.13 -2.43015,-10.07041 -2.41015,-17.65039 0.02,-5.78 0.0498,-11.5424 0.0898,-17.28907 0.0467,-3.23332 -0.61185,-6.19729 -1.97852,-8.89062 -1.93998,-3.4 -4.2814,-6.87969 -5.4414,-10.42969 -1.48,-4.52665 -2.20636,-9.14914 -2.17969,-13.86914 0,-0.38 0.18103,-0.50752 0.54101,-0.38086 14.98998,5.36 28.33903,-1.63961 44.45899,-6.09961 20.52996,-5.68998 44.70057,-1.71988 57.56055,16.58008 2.63332,4.38666 4.22596,9.06574 4.77929,14.03906 0.28667,10.61998 0.40295,21.2239 0.34961,31.81055 -0.06,11.82998 -7.89916,19.52072 -15.11914,27.2207 -1.38,1.46667 -2.13,3.77636 -2.25,6.92969 -0.28666,14.58664 -0.24752,26.20296 0.11914,34.84961 0.31,7.35998 6.78032,14.00086 14.32032,12.38086 5.55998,-1.19 12.2197,-7.8018 16.67968,-10.5918 17.88996,-11.17998 41.5716,-10.36982 56.60156,5.16016 3.38,3.5 6.49852,8.40055 9.72852,12.81055 3.87333,-0.24667 7.8342,-1.66954 11.88086,-4.26954 7.33998,-4.72998 21.38977,-4.96968 29.50977,-3.67968 2.90998,0.47 4.60117,3.60031 6.45117,5.57031 5.36998,5.73998 12.42931,7.43992 18.77929,1.91992 3.98667,-3.45333 5.10913,-8.19714 3.36915,-14.23047 -1.38,-4.79332 -2.88311,-9.56389 -4.50977,-14.31054 -4.83333,-15.97331 -8.27675,-26.89621 -10.33008,-32.76954 -1.79333,-5.13331 -5.24295,-7.95427 -10.34961,-8.46093 -3.12998,-0.31 -6.98992,1.00093 -10.41992,1.46093 -14.17998,1.88 -23.15086,-10.97019 -21.38086,-24.16015 0.88667,-4.82 3.3115,-8.79327 7.27148,-11.91992 6.89,-5.45 14.90971,-5.03108 22.67969,-1.8711 11.75331,4.78 22.21731,9.3684 31.39063,13.76172 4.78998,2.29 6.52978,6.79899 8.50976,12.70899 2.34667,6.99331 4.72844,13.98095 7.14844,20.96093 l 10.7207,31.91992 c 3.82,11.08665 7.59985,22.2925 11.33985,33.61915 0.54666,1.65998 0.93039,3.32976 1.15039,5.00976 l -0.0898,5.90039 c -2.67998,9.20665 -8.76025,14.98342 -18.24023,17.33008 -1.87333,0.46 -5.79002,0.69255 -11.75,0.69922 -22.33329,0.0333 -44.66671,0.057 -67,0.0703 -6.66998,0 -10.47008,4.23041 -14.08008,9.65039 -13.3933,20.14663 -26.9325,40.1971 -40.61914,60.15039 -4.55998,6.66666 -9.1515,13.3128 -13.77148,19.93946 -2.17333,3.11998 -3.34,7.03048 -3.5,11.73046 -0.1,2.98667 -0.0527,9.64406 0.14062,19.97071 l 0.16016,47.56836 -0.0801,30.85156 c 0.16,15.49996 0.26698,30.87251 0.32031,46.11914 0.0133,2.45333 0.52883,5.00373 1.54883,7.65039 2.25333,2.45333 3.98784,3.89055 5.20117,4.31055 7.3,2.50998 14.87946,-1.53071 16.18946,-8.97071 0.0867,-0.49333 0.13085,-3.66 0.13085,-9.5 -0.007,-44.25323 -0.10744,-88.50961 -0.30078,-132.76953 -0.01,-3.51998 0.61071,-5.70142 2.47071,-8.4414 15.94663,-23.42663 31.86336,-46.87942 47.75,-70.35938 0.8,-1.2 1.94976,-3.44017 3.25976,-4.91015 0.24,-0.26 0.53729,-0.39063 0.89063,-0.39063 20.19329,0 40.39608,0.0267 60.60937,0.0801 8.87332,0.0267 15.3024,-0.44659 19.28907,-1.41992 10.8533,-2.64667 19.8049,-8.58505 26.85156,-17.81836 8.91998,-11.68665 11.1227,-24.83477 6.60937,-39.44141 l -0.63086,-2.08008 -23.65039,-69 c -4.79998,-15.03996 -8.69877,-29.30908 -20.46875,-38.78906 -3.28665,-2.64666 -9.12311,-5.75366 -17.50976,-9.32031 -7.54666,-3.20667 -15.13002,-6.3373 -22.75,-9.39063 -4.92,-1.97332 -8.85722,-3.11325 -11.81055,-3.41992 -21.85996,-2.28 -42.09008,9.77981 -48.08008,31.25977 -6.77998,23.97994 4.80067,46.74986 28.64063,54.58984 6.10998,2.01 9.91861,1.50063 15.55859,1.39063 a 1,1.01 81 0 1 0.99024,0.71093 l 3.96093,12.76953 a 0.49,0.48 85.4 0 1 -0.53125,0.62891 c -10.23998,-1.51333 -20.22567,-0.59161 -29.95898,2.76172 a 1.54,1.55 59.4 0 1 -1.64063,-0.41016 C 632.26949,416.93076 599.0301,412.92043 572.66016,428.90039 a 0.26,0.26 0 0 1 -0.39063,-0.2207 c 0.02,-3.06 0.0797,-6.1321 0.17969,-9.21875 0.0333,-0.92667 0.26475,-1.61388 0.6914,-2.06055 8.56,-9.06998 15.90963,-20.26041 16.84961,-33.15039 0.36,-4.96666 0.30342,-16.63337 -0.16992,-35 -0.20666,-8.23332 -2.2838,-16.0008 -6.23047,-23.30078 -13.11371,-23.16433 -37.93767,-34.80768 -63.45117,-34.5625 z m -4.09179,170.77344 c -6.62137,0.0395 -13.125,4.53399 -12.1875,13.74023 1.62999,14.83999 19.37,15.44014 24.5,2.91016 2.84749,-11.01812 -4.80829,-16.6952 -12.3125,-16.65039 z m 263.32031,3.6289 c 0.0425,10e-4 0.0892,0.0113 0.14258,0.0312 -0.10667,-0.04 -0.19058,-0.0428 -0.25391,-0.008 0.0317,-0.0175 0.0688,-0.0247 0.11133,-0.0234 z m -0.23633,0.24024 c -0.0234,0.13558 -0.009,0.27973 0,0.42187 -0.005,-0.0218 -0.009,-0.044 -0.0195,-0.0644 0.003,0.0801 0.006,0.16189 0.0195,0.24414 0.0267,-0.0933 0.0182,-0.17891 -0.0234,-0.25391 0.002,0.003 0.002,0.007 0.004,0.01 -0.004,-0.12122 -5.4e-4,-0.24104 0.0195,-0.35742 z m -1.60742,1.20898 a 0.25,0.39 60.5 0 1 0.11328,0.008 0.25,0.39 60.5 0 0 -0.40625,0.21485 0.25,0.39 60.5 0 1 0.29297,-0.22266 z M 607.4043,534.48047 c -1.50688,0.072 -3.03086,0.53648 -4.44336,1.45898 -0.66,0.43334 -2.36158,2.27482 -5.10156,5.52149 -4.32667,5.13332 -9.60032,8.98836 -15.82032,11.56836 -4.49998,1.86 -8.94906,2.22039 -13.78906,2.15039 -6.83332,-0.0933 -13.66668,-0.0635 -20.5,0.0898 -2.19333,0.0467 -4.18714,1.1269 -5.98047,3.24024 -2.14666,2.51998 -2.89666,5.26381 -2.25,8.23046 1.63,7.44 7.21049,9.71891 14.23047,10.12891 15.10996,0.86 28.55082,1.4517 42.55078,-6.73828 C 604.79076,565.26086 618.5,553.58998 617,542.75 c -0.7125,-5.15998 -5.07509,-8.48562 -9.5957,-8.26953 z m -182.65039,0.27344 c -4.34609,-0.17334 -8.74961,2.39259 -9.44336,7.48632 -0.44667,3.24667 0.12851,6.57382 1.72851,9.98047 5.94666,8.93332 13.93739,15.80272 23.97071,20.60938 8.46998,4.05998 16.14025,4.49953 26.49023,4.51953 10.18998,0.02 30.81031,0.39129 25.57031,-16.88867 -2.05333,-3.52 -5.24675,-5.27 -9.58008,-5.25 -6.82665,0.0333 -13.66,0.093 -20.5,0.17968 -9.90664,0.12667 -18.29659,-3.27762 -25.16992,-10.21093 -0.96,-0.96667 -3.00109,-3.33605 -6.12109,-7.10938 -1.75125,-2.1225 -4.33767,-3.2124 -6.94531,-3.3164 z m 62.73437,57.97656 c -5.58984,-0.01 -10.09766,4.48242 -10.10742,10.07226 l -0.002,0.69922 c -0.01,5.58985 4.48242,10.09767 10.07226,10.10743 l 57.70117,0.10156 c 5.58985,0.01 10.09767,-4.48242 10.10743,-10.07227 v -0.70117 c 0.01,-5.58985 -4.48242,-10.09767 -10.07227,-10.10742 z m 54.90234,37.85937 c -18.46664,0.15334 -36.93064,0.29946 -55.39062,0.43946 -0.86,0.007 -2.21078,0.28031 -4.05078,0.82031 -7.01999,3.21 -6.68914,14.19117 -0.61914,17.70117 1.71333,0.98667 4.74318,1.47232 9.08984,1.45899 17.19332,-0.06 34.38676,-0.0929 51.58008,-0.0996 6.30999,0 11.34,-2.3904 12,-8.90039 0.45333,-4.45333 -1.40055,-7.96264 -5.56055,-10.5293 -2.04666,-0.61333 -4.39549,-0.91063 -7.04883,-0.89063 z m -24.76757,38.39454 c -8.87499,0.0133 -17.74973,0.0581 -26.62305,0.13476 -5.63999,0.05 -10.82078,0.0999 -13.05078,6.41992 -1.72,7.83999 2.28079,14.50039 10.80078,14.40039 17.49998,-0.22 35.00002,-0.26224 52.5,-0.1289 2.81,0.02 7.27907,-0.26977 9.78906,-2.00977 3.98667,-2.77333 5.19443,-6.89157 3.6211,-12.35156 -1.79334,-4.24666 -5.2635,-6.38349 -10.41016,-6.41016 -8.87666,-0.05 -17.75196,-0.068 -26.62695,-0.0547 z m 7.24023,66.65624 c -11.54165,0.01 -25.99663,0.043 -43.36328,0.0996 -10.23999,0.04 -14.5607,11.86946 -6.9707,18.18946 1.84666,1.53333 3.81372,2.79458 5.90039,3.78125 L 553.64062,757.5 c 0.62667,-0.64 1.81193,-1.57721 3.5586,-2.81055 8.25999,-5.82999 4.53077,-18.94976 -6.44922,-19.00976 -5.71666,-0.0367 -14.34506,-0.0491 -25.88672,-0.0391 z"
     style="fill:url(#radialGradient182)" />
  <path
     fill="#fefcfd"
     d="m 1485.3118,444.28296 c -0.04,2.02 -0.56,3.88 -0.51,5.8 0.06,2.78 -0.34,5.48 -0.12,8.21 0.27,3.42 0.99,10.52 -0.38,13.59 q -0.21,0.49 -0.51,0.04 -0.14,-0.2 -0.2,-0.46 -0.03,-0.14 -0.11,-0.02 -0.11,0.19 0.03,0.45 0.12,0.23 -0.14,0.22 -0.14,0 -0.28,0 -0.19,0 -0.2,-0.19 l -0.71,-9.74 q -0.02,-0.27 -0.16,-0.04 -0.08,0.12 -0.13,0.24 -0.06,0.15 -0.2,0.22 -0.71,0.37 -0.97,-0.29 -0.18,-0.45 -0.67,-0.45 h -1.18 q -0.45,0 -0.86,0.19 l -2.11,1 q -0.54,0.25 -0.89,0.72 c -1.04,1.4 -2.59,1.09 -3.68,1.62 q -1.91,0.93 -3.38,2.49 c -0.77,0.81 -0.81,1.77 -1.55,2.64 q -0.31,0.37 -0.37,0.84 l -0.7,5.5 q -0.08,0.59 -0.66,0.7 c -1.95,0.37 -3.91,-0.46 -5.55,-0.33 q -4.14,0.32 -8.24,1.09 -0.15,0.03 -0.09,0.16 0.06,0.12 0.12,0.24 a 0.17,0.16 56 0 1 -0.03,0.19 q -0.23,0.24 -0.53,0.21 -0.06,0 -0.06,0.06 0.05,0.83 -0.74,0.94 a 0.05,1.19 39.5 0 0 -0.77,0.86 q -0.18,0.22 -0.12,0.48 0.17,0.63 -0.45,0.45 -0.58,-0.16 -0.76,-0.64 -0.19,-0.49 -0.42,-0.02 -0.18,0.37 -0.41,0.51 l -0.63,-2.08 -23.65,-69 c -4.8,-15.04 -8.7,-29.31 -20.47,-38.79 q -4.93,-3.97 -17.51,-9.32 -11.32,-4.81 -22.75,-9.39 -7.38,-2.96 -11.81,-3.42 c -21.86,-2.28 -42.09,9.78 -48.08,31.26 -6.78,23.98 4.8,46.75 28.64,54.59 6.11,2.01 9.92,1.5 15.56,1.39 a 1,1.01 81 0 1 0.99,0.71 l 3.96,12.77 a 0.49,0.48 85.4 0 1 -0.53,0.63 q -15.36,-2.27 -29.96,2.76 a 1.54,1.55 59.4 0 1 -1.64,-0.41 c -20.92,-22.79 -54.16,-26.8 -80.53,-10.82 a 0.26,0.26 0 0 1 -0.39,-0.22 q 0.03,-4.59 0.18,-9.22 0.05,-1.39 0.69,-2.06 c 8.56,-9.07 15.91,-20.26 16.85,-33.15 q 0.54,-7.45 -0.17,-35 -0.31,-12.35 -6.23,-23.3 c -16.14,-28.51 -50.02,-39.57 -81.09,-32.49 q -9.11,2.08 -18.02,4.91 c -6.73,2.15 -14.02,4.47 -19.49,2.23 -6.78,-2.77 -10.58,-8.24 -18.31,-3.15 -8.65,5.69 -12.12,18.6 -12.41,28.55 q -0.46,16.03 6.37,27.9 c 1.23,2.23 2.43,3.97 2.4,6.65 q -0.23,15.63 0.03,25.2 0.09,3.45 1.26,8.02 c 3.06,9.23 8.54,16.53 15.22,23.47 2.51,2.6 1.4,8.09 1.19,11.52 q -0.04,0.56 -0.52,0.28 -4.83,-2.74 -6.26,-3.45 c -21.72,-10.79 -48.8,-7.63 -67.53,7.58 q -2.34,1.9 -7.31,7.07 -0.38,0.4 -0.89,0.21 c -10.22,-3.7 -19.83,-4.78 -30.62,-3.07 a 0.54,0.54 0 0 1 -0.6,-0.67 l 3.39,-12.83 a 0.72,0.72 0 0 1 0.79,-0.53 c 21.09,2.62 39.62,-11.94 45.65,-31.48 4.26,-18.04 -1.06,-35.02 -15.32,-46.5 q -19.25,-15.51 -45.42,-5.89 -19.57002,7.19 -32.01002,13.1 -7.74,3.67 -14.23,11.35 -5.1,6.44 -7.69,13.82 -7.47,21.29 -19.01,55.91 l -7.6,22.27 q -0.6,-0.58 -0.42,-1.66 0.08,-0.45 -0.38,-0.4 -0.55,0.07 -0.64,-0.4 a 0.32,0.32 0 0 1 0.29,-0.37 q 0.43,-0.03 0.84,-0.5 0.05,-0.05 0,-0.11 l -0.26,-0.26 a 0.2,0.2 0 0 1 0.15,-0.34 q 0.38,0.03 0.23,-0.31 -0.51,-1.11 -1.67,-0.32 -0.35,0.24 -0.3,0.67 0.1,0.75 -0.61,1.19 -0.36,0.22 -0.76,0.11 -0.95,-0.27 -1.14,-1 -0.24,-0.91 -0.99,-1.48 -0.81,-0.63 -1.06,-0.29 -0.51,0.68 -0.47,0.04 0.01,-0.14 -0.03,-0.29 -0.06,-0.19 -0.24,-0.12 -4.01,1.38 -7.26,4.05 a 0.36,0.36 0 0 1 -0.56,-0.12 l -0.45,-0.92 q -0.22,-0.43 -0.7,-0.45 l -1.95,-0.08 q -0.35,-0.02 -0.68,0.12 -0.72,0.32 -1.43,-0.04 -0.44,-0.22 -0.92,-0.12 c -1.71,0.35 -3.52,-0.05 -5.15,0.58 q -0.52,0.2 -0.94,-0.3 -0.31,-0.38 -0.77,-0.2 l -2.42,0.92 q -0.16,0.06 -0.24,0.21 -0.07,0.14 -0.14,0.27 a 0.14,0.14 0 0 1 -0.26,-0.03 l -0.1,-0.37 q -0.05,-0.21 -0.26,-0.23 -0.19,-0.01 -0.38,0 -0.34,0.02 -0.3,0.35 0.06,0.66 -0.68,0.67 -0.52,0 -1.75,-0.44 -0.09,-0.03 -0.13,0.05 l -0.21,0.31 q -0.18,0.28 -0.52,0.29 -0.59,0.01 -1,0.54 a 0.63,0.63 0 0 1 -0.89,0.11 q -0.28,-0.23 -0.42,-0.56 -0.13,-0.32 -0.45,-0.43 -0.87,-0.3 -1.09,0.33 -0.2,0.54 -0.77,0.5 -0.27,-0.02 -0.46,-0.24 -0.2,-0.25 -0.18,-0.79 0.04,-1.27 -0.1,-2.62 -0.02,-0.22 -0.18,-0.06 l -0.37,0.36 a 0.18,0.18 0 0 1 -0.31,-0.12 l -0.44,-18.59 q -0.14,-30.52 -0.02,-61.05 0.05,-13.01 0.89,-19.95 c 3.44,-28.26 14.47,-56.4 32.32,-78.31 q 37.71,-46.28 97.82002,-54.98 9.97,-1.45 16,-1.46 149.88,-0.3 299.75,-0.19 c 8.9,0.01 18.18,-0.15 26.62,0.94 q 51.14,6.58 87.8,43.29 c 25.02,25.05 40.71,58.15 44.55,93.7 q 0.71,6.62 0.75,19.97 0.09,27.77 0.04,55.54 z"
     id="path127" />
  <path
     fill="#7d0044"
     d="m 1249.1418,339.69296 q -0.65,0.85 -0.24,2.5 a 0.41,0.4 82.1 0 1 -0.38,0.51 q -4.59,0.11 -8.99,1.33 c -1.53,0.43 -2.75,2.22 -4.63,0.85 q -0.42,-0.3 -0.88,-0.05 l -4.43,2.38 q -0.54,0.3 -1.14,0.17 -1.88,-0.41 -2.24,0.51 c -12.86,-18.3 -37.03,-22.27 -57.56,-16.58 -16.12,4.46 -29.47,11.46 -44.46,6.1 q -0.54,-0.19 -0.54,0.38 -0.04,7.08 2.18,13.87 c 1.16,3.55 3.5,7.03 5.44,10.43 q 2.05,4.04 1.98,8.89 -0.58,-0.52 -0.98,-1.33 -0.43,-0.87 -0.59,-0.17 -0.08,0.33 -0.39,0.51 -0.69,0.38 -0.86,0.37 c -5.18,-0.46 -9.89,0.37 -15.13,-0.74 q -0.66,-0.14 -1.26,0.05 -0.75,0.24 0,0.46 l 0.99,0.28 q 0.45,0.13 -0.02,0.21 -1.23,0.19 -1.89,-1.03 -0.2,-0.36 -0.56,-0.54 -1.66,-0.83 -3.54,-0.68 -0.39,0.03 -0.64,-0.26 -0.99,-1.18 -2.19,-0.47 -6.83,-11.87 -6.37,-27.9 c 0.29,-9.95 3.76,-22.86 12.41,-28.55 7.73,-5.09 11.53,0.38 18.31,3.15 5.47,2.24 12.76,-0.08 19.49,-2.23 q 8.91,-2.83 18.02,-4.91 c 31.07,-7.08 64.95,3.98 81.09,32.49 z"
     id="path128" />
  <path
     fill="#fe9637"
     d="m 1226.2118,347.89296 q 3.95,6.58 4.78,14.04 -0.6,1.02 -1.07,1.06 -0.11,0.01 -0.17,-0.08 -0.03,-0.05 -0.05,-0.09 -0.05,-0.12 -0.15,-0.08 -0.22,0.08 -0.08,0.36 a 0.39,0.38 86 0 1 -0.46,0.53 q -4.29,-1.26 -8.21,-1.06 -1.61,0.09 -3.18,-0.27 a 0.55,0.53 84.1 0 1 -0.37,-0.31 q -0.14,-0.32 -0.49,-0.39 -0.34,-0.06 -0.42,-0.09 -4.48,-1.64 -9.25,-0.63 -0.54,0.11 -0.29,0.61 0.12,0.23 0.53,0.32 0.36,0.09 0.59,-0.15 0.26,-0.28 0.54,-0.02 0.27,0.26 0.21,0.59 -0.05,0.33 -0.38,0.36 -3.42,0.31 -6.86,0.06 c -1.18,-0.09 -2.24,0.37 -3.53,0.13 -4.63,-0.87 -9.62,-0.71 -14.34,-0.86 -1.91,-0.06 -3.92,0.56 -6.01,0.46 q -5.17,-0.23 -10.35,-0.06 c -1.96,0.06 -4.13,-0.41 -6.49,0.51 q -0.28,0.11 -0.46,-0.13 l -0.24,-0.31 q -0.21,-0.29 -0.56,-0.27 -3.12,0.12 -6.22,-0.12 -2.97,-0.24 -5.34,0.1 c -4.65,0.67 -7.4,0.92 -13.21,0.04 q -0.57,-0.09 -1.18,0.42 -0.29,0.25 -0.61,0.05 -0.68,-0.39 -1.62,-0.52 c -1.94,-3.4 -4.28,-6.88 -5.44,-10.43 q -2.22,-6.79 -2.18,-13.87 0,-0.57 0.54,-0.38 c 14.99,5.36 28.34,-1.64 44.46,-6.1 20.53,-5.69 44.7,-1.72 57.56,16.58 z"
     id="path129" />
  <path
     fill="#3f0047"
     d="m 1249.1418,339.69296 q 5.92,10.95 6.23,23.3 0.71,27.55 0.17,35 c -0.94,12.89 -8.29,24.08 -16.85,33.15 q -0.64,0.67 -0.69,2.06 -0.15,4.63 -0.18,9.22 a 0.26,0.26 0 0 0 0.39,0.22 c 26.37,-15.98 59.61,-11.97 80.53,10.82 a 1.54,1.55 59.4 0 0 1.64,0.41 q 14.6,-5.03 29.96,-2.76 a 0.49,0.48 85.4 0 0 0.53,-0.63 l -3.96,-12.77 a 1,1.01 81 0 0 -0.99,-0.71 c -5.64,0.11 -9.45,0.62 -15.56,-1.39 -23.84,-7.84 -35.42,-30.61 -28.64,-54.59 l 0.58,0.74 q 0.06,0.08 -0.02,0.12 -0.13,0.06 -0.26,0.13 -0.21,0.1 -0.08,0.31 1.12,1.7 3.29,1.69 a 1.23,1.08 48.8 0 1 0.3,0.04 q 4.69,1.37 9.24,3.06 3.78,1.4 7.8,1.94 1.3,0.18 1.85,0.52 c -1.77,13.19 7.2,26.04 21.38,24.16 3.43,-0.46 7.29,-1.77 10.42,-1.46 q 7.66,0.76 10.35,8.46 3.08,8.81 10.33,32.77 2.44,7.12 4.51,14.31 2.61,9.05 -3.37,14.23 c -6.35,5.52 -13.41,3.82 -18.78,-1.92 -1.85,-1.97 -3.54,-5.1 -6.45,-5.57 -8.12,-1.29 -22.17,-1.05 -29.51,3.68 q -6.07,3.9 -11.88,4.27 c -3.23,-4.41 -6.35,-9.31 -9.73,-12.81 -15.03,-15.53 -38.71,-16.34 -56.6,-5.16 -4.46,2.79 -11.12,9.4 -16.68,10.59 -7.54,1.62 -14.01,-5.02 -14.32,-12.38 q -0.55,-12.97 -0.12,-34.85 0.18,-4.73 2.25,-6.93 c 7.22,-7.7 15.06,-15.39 15.12,-27.22 q 0.08,-15.88 -0.35,-31.81 -0.83,-7.46 -4.78,-14.04 0.36,-0.92 2.24,-0.51 0.6,0.13 1.14,-0.17 l 4.43,-2.38 q 0.46,-0.25 0.88,0.05 c 1.88,1.37 3.1,-0.42 4.63,-0.85 q 4.4,-1.22 8.99,-1.33 a 0.41,0.4 82.1 0 0 0.38,-0.51 q -0.41,-1.65 0.24,-2.5 z"
     id="path130" />
  <path
     fill="#5c0045"
     d="m 1062.3918,405.61296 -12.42,0.66 q -0.28,0.02 -0.29,-0.26 -0.01,-0.14 -0.01,-0.27 0,-0.62 -0.62,-0.62 h -0.96 q -0.46,0 -0.55,0.45 -0.09,0.39 -0.36,0.67 -0.35,0.38 -0.86,0.32 -7.8,-0.89 -12.93,2.43 c 8.4,-8.74 8.7,-23.41 -1.28,-31.32 -7.24,-5.75 -15.14,-4.89 -23.25,-1.81 q -12.23002,4.66 -24.30002,9.73 -6.87,2.89 -10.69,6.03 l -10.54,-8.59 q -0.23,-0.18 -0.5,-0.11 -0.21,0.06 -0.4,0.02 -0.39,-0.08 -0.28,-0.46 0.16,-0.6 -0.47,-0.85 -2.04,-0.82 -3.08,-2.46 a 2.06,2.02 2.2 0 0 -0.53,-0.56 q -0.68,-0.49 -1.08,-1.17 -0.17,-0.31 -0.44,-0.08 -0.56,0.48 -1.14,0.31 6.49,-7.68 14.23,-11.35 12.44,-5.91 32.01002,-13.1 26.17,-9.62 45.42,5.89 c 14.26,11.48 19.58,28.46 15.32,46.5 z"
     id="path131" />
  <path
     fill="#5c0045"
     d="m 1422.3418,410.68296 q -0.93,0.07 -0.97,1.42 -0.02,0.63 -0.61,0.41 -1.79,-0.66 -3.33,0.75 -0.34,0.3 -0.79,0.37 -1.08,0.16 -2.02,0.65 -6.11,3.25 -12.33,6.41 -0.79,0.4 0.03,0.75 0.54,0.24 0.85,0.75 0.26,0.45 -0.24,0.33 -0.29,-0.07 -0.47,-0.26 -0.31,-0.33 -0.67,-0.04 -0.4,0.31 -0.37,0.99 -3.63,-10.47 -7.15,-20.96 c -1.98,-5.91 -3.72,-10.42 -8.51,-12.71 q -13.76,-6.59 -31.39,-13.76 c -7.77,-3.16 -15.79,-3.58 -22.68,1.87 q -5.94,4.69 -7.27,11.92 -0.55,-0.34 -1.85,-0.52 -4.02,-0.54 -7.8,-1.94 -4.55,-1.69 -9.24,-3.06 a 1.23,1.08 48.8 0 0 -0.3,-0.04 q -2.17,0.01 -3.29,-1.69 -0.13,-0.21 0.08,-0.31 0.13,-0.07 0.26,-0.13 0.08,-0.04 0.02,-0.12 l -0.58,-0.74 c 5.99,-21.48 26.22,-33.54 48.08,-31.26 q 4.43,0.46 11.81,3.42 11.43,4.58 22.75,9.39 12.58,5.35 17.51,9.32 c 11.77,9.48 15.67,23.75 20.47,38.79 z"
     id="path132" />
  <path
     fill="#ff743f"
     d="m 1230.9918,361.93296 q 0.43,15.93 0.35,31.81 c -0.06,11.83 -7.9,19.52 -15.12,27.22 q -2.07,2.2 -2.25,6.93 0.78,2.74 -4.29,1.91 a 0.3,0.3 0 0 1 -0.25,-0.3 q 0,-0.14 -0.01,-0.29 -0.01,-0.35 -0.36,-0.38 -5.66,-0.53 -11.34,-0.85 c -2.5,-0.15 -5,0.13 -7.52,0.26 q -0.48,0.03 -0.86,0.34 -1.39,1.17 -3.15,0.67 -0.04,-0.01 -0.05,0.03 -0.06,0.12 -0.12,0.26 a 0.11,0.1 44.3 0 1 -0.19,0 q -0.11,-0.22 -0.26,-0.45 -0.13,-0.18 -0.34,-0.1 c -4.53,1.69 -11.55,0.87 -16.43,0.87 q -1.25,0.01 -3.39,-1.44 a 0.82,0.81 30.9 0 0 -1.17,0.29 q -0.26,0.5 -0.7,0.64 -0.59,0.18 -0.01,0.19 0.24,0.01 0.39,0.2 0.32,0.41 -0.19,0.51 l -5.56,1.04 q -0.42,0.08 -0.56,0.49 -0.15,0.47 -0.64,0.74 -0.12,0.07 -0.18,-0.05 -0.06,-0.12 -0.11,-0.23 -0.04,-0.08 -0.13,0 -0.16,0.13 -0.34,0.13 -0.27,0 -0.46,-0.19 l -0.79,-0.78 q -0.32,-0.32 -0.73,-0.14 -0.78,0.33 -1.33,-0.15 -0.37,-0.34 -0.86,-0.44 -0.38,-0.08 -0.66,0.03 -0.59,0.23 -0.82,-0.36 -0.46,-1.18 -0.45,-2.54 c -0.41,-5.89 -4.29,-9.4 -8.37,-13.63 q -4.54,-5.19 -6.17,-8.25 c -2.73,-5.13 -2.43,-10.07 -2.41,-17.65 q 0.03,-8.67 0.09,-17.29 0.07,-4.85 -1.98,-8.89 0.94,0.13 1.62,0.52 0.32,0.2 0.61,-0.05 0.61,-0.51 1.18,-0.42 c 5.81,0.88 8.56,0.63 13.21,-0.04 q 2.37,-0.34 5.34,-0.1 3.1,0.24 6.22,0.12 0.35,-0.02 0.56,0.27 l 0.24,0.31 q 0.18,0.24 0.46,0.13 c 2.36,-0.92 4.53,-0.45 6.49,-0.51 q 5.18,-0.17 10.35,0.06 c 2.09,0.1 4.1,-0.52 6.01,-0.46 4.72,0.15 9.71,-0.01 14.34,0.86 1.29,0.24 2.35,-0.22 3.53,-0.13 q 3.44,0.25 6.86,-0.06 0.33,-0.03 0.38,-0.36 0.06,-0.33 -0.21,-0.59 -0.28,-0.26 -0.54,0.02 -0.23,0.24 -0.59,0.15 -0.41,-0.09 -0.53,-0.32 -0.25,-0.5 0.29,-0.61 4.77,-1.01 9.25,0.63 0.08,0.03 0.42,0.09 0.35,0.07 0.49,0.39 a 0.55,0.53 84.1 0 0 0.37,0.31 q 1.57,0.36 3.18,0.27 3.92,-0.2 8.21,1.06 a 0.39,0.38 86 0 0 0.46,-0.53 q -0.14,-0.28 0.08,-0.36 0.1,-0.04 0.15,0.08 0.02,0.04 0.05,0.09 0.06,0.09 0.17,0.08 0.47,-0.04 1.07,-1.06 z"
     id="path133" />
  <path
     fill="#5c0045"
     d="m 1133.2518,370.98296 q -0.06,8.62 -0.09,17.29 c -0.02,7.58 -0.32,12.52 2.41,17.65 q 1.63,3.06 6.17,8.25 -0.28,0.66 -0.69,0.78 -0.29,0.09 -0.17,0.36 0.06,0.13 0.18,0.21 0.25,0.16 0.34,0.45 l 0.32,1.01 a 0.71,0.58 18.4 0 1 -1.17,0.45 q -0.18,-0.18 -1.04,-0.37 c -1.94,-0.42 -5.62,-1.48 -7.51,-0.94 q -0.4,0.11 -0.78,-0.06 -0.75,-0.32 -1.51,-0.42 -0.26,-0.04 -0.48,-0.17 -0.59,-0.36 -0.58,-0.9 a 0.58,0.59 7.4 0 0 -0.44,-0.58 q -7.21,-1.73 -13.91,-4.86 -0.45,-0.21 -1.71,0.1 a 0.44,0.45 82.6 0 1 -0.55,-0.42 q -0.03,-0.74 -0.48,-1.23 a 0.17,0.17 0 0 0 -0.3,0.12 q 0.01,0.59 -0.21,0.66 -0.12,0.03 -0.05,-0.06 0.08,-0.1 0.14,-0.23 0.03,-0.07 0,-0.14 -0.35,-0.83 -1.26,-0.42 -1.17,-4.57 -1.26,-8.02 -0.26,-9.57 -0.03,-25.2 c 0.03,-2.68 -1.17,-4.42 -2.4,-6.65 q 1.2,-0.71 2.19,0.47 0.25,0.29 0.64,0.26 1.88,-0.15 3.54,0.68 0.36,0.18 0.56,0.54 0.66,1.22 1.89,1.03 0.47,-0.08 0.02,-0.21 l -0.99,-0.28 q -0.75,-0.22 0,-0.46 0.6,-0.19 1.26,-0.05 c 5.24,1.11 9.95,0.28 15.13,0.74 q 0.17,0.01 0.86,-0.37 0.31,-0.18 0.39,-0.51 0.16,-0.7 0.59,0.17 0.4,0.81 0.98,1.33 z"
     id="path134" />
  <path
     fill="#ff743f"
     d="m 1033.3918,408.99296 c -7.04,6.15 -13.86,5.11 -22.36,3.41 -7.56,-1.51 -12.58002,3.3 -14.75002,10.08 q -6.32,19.78 -12.17,37.89 -8.17,0.36 -15.8,2.01 -3.19,0.69 -11.77,-0.31 a 0.1,0.1 0 0 0 -0.11,0.11 q 0.01,0.22 -0.07,0.38 a 0.15,0.15 0 0 1 -0.24,0.03 q -0.86,-0.96 -2.09,-1 -0.36,-0.01 -0.36,-0.37 v -1.01 q 0,-0.68 -0.68,-0.65 l -3.45,0.17 q 14.86,-43.28 21.18,-62.52 1.11,-3.37 3.15,-5.59 3.82,-3.14 10.69,-6.03 12.07,-5.07 24.30002,-9.73 c 8.11,-3.08 16.01,-3.94 23.25,1.81 9.98,7.91 9.68,22.58 1.28,31.32 z"
     id="path135" />
  <path
     fill="#ff743f"
     d="m 1401.4218,423.21296 10.72,31.92 q -1.14,0.04 -1.57,0.6 a 0.85,0.86 17.4 0 1 -0.59,0.31 q -9.71,0.79 -19.44,0.69 c -1.73,-0.02 -3.5,0.36 -5.16,0.13 q -2.33,-0.34 -4.68,-0.49 -0.13,-0.01 -0.17,0.12 -0.04,0.17 -0.09,0.33 -0.02,0.04 -0.01,0 0.03,-0.25 -0.11,-0.51 -0.08,-0.15 -0.24,-0.18 -1.99,-0.35 -1.97,-2.61 a 0.15,0.15 0 0 0 -0.29,-0.04 q -0.04,0.13 -0.07,0.27 -0.04,0.14 -0.1,0.01 -0.21,-0.46 -0.75,-0.26 -7.25,-23.96 -10.33,-32.77 -2.69,-7.7 -10.35,-8.46 c -3.13,-0.31 -6.99,1 -10.42,1.46 -14.18,1.88 -23.15,-10.97 -21.38,-24.16 q 1.33,-7.23 7.27,-11.92 c 6.89,-5.45 14.91,-5.03 22.68,-1.87 q 17.63,7.17 31.39,13.76 c 4.79,2.29 6.53,6.8 8.51,12.71 q 3.52,10.49 7.15,20.96 z"
     id="path136" />
  <path
     fill="#3f0047"
     d="m 973.87178,391.62296 q -2.04,2.22 -3.15,5.59 -6.32,19.24 -21.18,62.52 l -1.58,4.77 q -1.04,-0.11 -0.76,-0.56 -0.7,0.2 -1.53,-0.57 -1.79,-1.67 -5.04,-3.72 c -2.9,-1.82 -4.01,-4.86 -7.22,-6.51 q -1.88,-0.97 -2.96,-1.92 -0.34,-0.3 -0.78,-0.21 -0.73,0.15 -1.14,-0.56 -0.6,-1.04 0.42,-1.51 0.11,-0.05 0.21,0 0.18,0.07 0.32,0.21 a 0.05315073,0.05315073 0 0 0 0.08,-0.07 l -0.56,-0.69 a 0.4,0.38 39.5 0 1 -0.05,-0.42 q 0.05,-0.11 0.11,-0.23 0.06,-0.12 -0.07,-0.18 -0.11,-0.05 -0.28,-0.16 11.54,-34.62 19.01,-55.91 2.59,-7.38 7.69,-13.82 0.58,0.17 1.14,-0.31 0.27,-0.23 0.44,0.08 0.4,0.68 1.08,1.17 a 2.06,2.02 2.2 0 1 0.53,0.56 q 1.04,1.64 3.08,2.46 0.63,0.25 0.47,0.85 -0.11,0.38 0.28,0.46 0.19,0.04 0.4,-0.02 0.27,-0.07 0.5,0.11 z"
     id="path137" />
  <path
     fill="#3f0047"
     d="m 1062.3918,405.61296 c -6.03,19.54 -24.56,34.1 -45.65,31.48 a 0.72,0.72 0 0 0 -0.79,0.53 l -3.39,12.83 a 0.54,0.54 0 0 0 0.6,0.67 c 10.79,-1.71 20.4,-0.63 30.62,3.07 q 0.51,0.19 0.89,-0.21 4.97,-5.17 7.31,-7.07 c 18.73,-15.21 45.81,-18.37 67.53,-7.58 q 1.43,0.71 6.26,3.45 0.48,0.28 0.52,-0.28 c 0.21,-3.43 1.32,-8.92 -1.19,-11.52 -6.68,-6.94 -12.16,-14.24 -15.22,-23.47 q 0.91,-0.41 1.26,0.42 0.03,0.07 0,0.14 -0.06,0.13 -0.14,0.23 -0.07,0.09 0.05,0.06 0.22,-0.07 0.21,-0.66 a 0.17,0.17 0 0 1 0.3,-0.12 q 0.45,0.49 0.48,1.23 a 0.44,0.45 82.6 0 0 0.55,0.42 q 1.26,-0.31 1.71,-0.1 6.7,3.13 13.91,4.86 a 0.58,0.59 7.4 0 1 0.44,0.58 q -0.01,0.54 0.58,0.9 0.22,0.13 0.48,0.17 0.76,0.1 1.51,0.42 0.38,0.17 0.78,0.06 c 1.89,-0.54 5.57,0.52 7.51,0.94 q 0.86,0.19 1.04,0.37 a 0.71,0.58 18.4 0 0 1.17,-0.45 l -0.32,-1.01 q -0.09,-0.29 -0.34,-0.45 -0.12,-0.08 -0.18,-0.21 -0.12,-0.27 0.17,-0.36 0.41,-0.12 0.69,-0.78 c 4.08,4.23 7.96,7.74 8.37,13.63 q -0.07,14.7 -0.22,29.44 c -0.06,6.21 -0.25,12.22 -5.47,15.87 -6.1,4.27 -11.39,2.22 -17.25,-2.06 -9.81,-7.17 -17.53,-12.53 -30.87,-13.83 q -18.96,-1.85 -33.03,10.92 c -4.11,3.73 -7.96,9.53 -12.08,14.19 q -3.52,0.18 -6.26,-1.26 c -4.61,-2.41 -9.62,-4.91 -14.55,-6.02 -4.12,-0.92 -21.75,-2.46 -24.3,1.46 -3.63,5.55 -9.22002,10.46 -16.41002,8.48 q -3.56,-0.98 -5.81,-4.07 c -4.96,-6.78 -2.11,-13.41 0.25,-20.55 q 5.85,-18.11 12.17,-37.89 c 2.17,-6.78 7.19002,-11.59 14.75002,-10.08 8.5,1.7 15.32,2.74 22.36,-3.41 q 5.13,-3.32 12.93,-2.43 0.51,0.06 0.86,-0.32 0.27,-0.28 0.36,-0.67 0.09,-0.45 0.55,-0.45 h 0.96 q 0.62,0 0.62,0.62 0,0.13 0.01,0.27 0.01,0.28 0.29,0.26 z"
     id="path138" />
  <path
     fill="#3f0047"
     d="m 1422.3418,410.68296 23.65,69 q -0.5,0.03 -0.93,-0.12 -0.32,-0.12 -0.38,0.21 -0.05,0.29 0,0.6 0.08,-0.28 -0.25,-0.45 a 0.26,0.26 0 0 0 -0.35,0.34 q 0.25,0.55 0.04,1.09 -0.11,0.3 -0.43,0.28 -0.45,-0.02 -0.26,-0.39 a 0.25,0.39 60.5 0 0 -0.65,-0.04 q -1.96,3.77 -4.98,3.76 -0.46,0 -0.38,0.46 0.12,0.61 0.72,0.64 0.76,0.03 0.16,0.49 -0.4,0.31 -0.93,0.32 -0.41,0 -0.76,-0.21 -0.3,-0.18 -0.66,-0.22 a 0.7,0.68 28.6 0 0 -0.53,0.15 l -4.72,3.7 a 0.9,0.9 0 0 0 -0.34,0.78 q 0.32,4.19 -3,6.4 -0.39,0.26 -0.59,0.69 l -0.79,1.73 q -0.06,0.12 -0.06,-0.02 v -0.37 q 0,-0.21 -0.19,-0.3 -0.76,-0.36 -1.19,0.46 l 0.09,-5.9 q -0.33,-2.52 -1.15,-5.01 -5.61,-16.99 -11.34,-33.62 l -10.72,-31.92 q -0.03,-0.68 0.37,-0.99 0.36,-0.29 0.67,0.04 0.18,0.19 0.47,0.26 0.5,0.12 0.24,-0.33 -0.31,-0.51 -0.85,-0.75 -0.82,-0.35 -0.03,-0.75 6.22,-3.16 12.33,-6.41 0.94,-0.49 2.02,-0.65 0.45,-0.07 0.79,-0.37 1.54,-1.41 3.33,-0.75 0.59,0.22 0.61,-0.41 0.04,-1.35 0.97,-1.42 z"
     id="path139" />
  <path
     fill="#ff6243"
     d="m 1150.1118,427.80296 q -0.01,1.36 0.45,2.54 0.23,0.59 0.82,0.36 0.28,-0.11 0.66,-0.03 0.49,0.1 0.86,0.44 0.55,0.48 1.33,0.15 0.41,-0.18 0.73,0.14 l 0.79,0.78 q 0.19,0.19 0.46,0.19 0.18,0 0.34,-0.13 0.09,-0.08 0.13,0 0.05,0.11 0.11,0.23 0.06,0.12 0.18,0.05 0.49,-0.27 0.64,-0.74 0.14,-0.41 0.56,-0.49 l 5.56,-1.04 q 0.51,-0.1 0.19,-0.51 -0.15,-0.19 -0.39,-0.2 -0.58,-0.01 0.01,-0.19 0.44,-0.14 0.7,-0.64 a 0.82,0.81 30.9 0 1 1.17,-0.29 q 2.14,1.45 3.39,1.44 c 4.88,0 11.9,0.82 16.43,-0.87 q 0.21,-0.08 0.34,0.1 0.15,0.23 0.26,0.45 a 0.11,0.1 44.3 0 0 0.19,0 q 0.06,-0.14 0.12,-0.26 0.01,-0.04 0.05,-0.03 1.76,0.5 3.15,-0.67 0.38,-0.31 0.86,-0.34 c 2.52,-0.13 5.02,-0.41 7.52,-0.26 q 5.68,0.32 11.34,0.85 0.35,0.03 0.36,0.38 0.01,0.15 0.01,0.29 a 0.3,0.3 0 0 0 0.25,0.3 q 5.07,0.83 4.29,-1.91 -0.43,21.88 0.12,34.85 c 0.31,7.36 6.78,14 14.32,12.38 5.56,-1.19 12.22,-7.8 16.68,-10.59 17.89,-11.18 41.57,-10.37 56.6,5.16 3.38,3.5 6.5,8.4 9.73,12.81 q -0.02,0.31 -0.64,-0.02 a 0.09,0.09 0 0 0 -0.11,0.14 q 0.13,0.13 0.27,0.26 a 0.09,0.09 0 0 1 -0.06,0.16 q -0.9,0.05 -1.5,0.73 -0.37,0.4 -0.87,0.6 -1.19,0.47 -2.46,0.5 -0.01,0 -0.25,0.12 -0.17,0.07 -0.13,0.24 0.09,0.41 -0.24,0.67 -0.43,0.32 -1,0.18 -0.42,-0.09 -0.69,0.24 -0.31,0.41 -0.82,0.12 -0.45,-0.26 -0.97,-0.25 c -6.02,0.15 -11.86,2.36 -17.91,2.55 -2.53,0.09 -5.22,0.61 -7.49,0.62 q -10.52,0.04 -21.01,0.87 c -0.69,0.05 -1.01,-0.16 -1.65,-0.1 q -4.54,0.43 -9.1,0.32 -5.16,-0.12 -10.33,-0.29 -0.09,0 -0.15,0.06 l -0.24,0.24 q -0.06,0.06 -0.16,0.05 c -2.27,-0.43 -4.64,0.22 -6.43,0.26 q -5.85,0.13 -11.68,0.55 -2.7,0.2 -12.63,-0.59 c -2.1,-0.17 -4.01,-1.25 -6.24,-1.53 a 1.58,1.57 19.5 0 0 -1.52,0.72 q -0.8,1.25 -0.58,2.56 a 0.39,0.39 0 0 1 -0.66,0.33 l -0.26,-0.26 c 5.36,-20.74 -26.5,-22.55 -24.5,-2.91 q -0.47,0.03 -0.74,0.8 -0.04,0.13 -0.15,0.04 -0.17,-0.15 -0.12,-0.37 0.1,-0.36 -0.27,-0.31 -3.97,0.59 -6.83,0.54 -6.6,-0.12 -12.34,0.55 -0.16,0.02 -5.84,0.38 -2.47,0.15 -5.82,0.83 -4.61,0.94 -17,1.05 -0.73,0.01 -1.07,0.32 a 0.56,0.54 22 0 1 -0.39,0.16 c -5.56,0 -11.11,0.09 -16.65,-0.27 q -10.32,-0.66 -20.63,-1.39 a 0.12,0.12 0 0 0 -0.13,0.13 q 0.02,0.13 -0.01,0.27 -0.02,0.11 -0.63,0.05 -2.51,-0.28 -4.51,-1.85 -0.42,-0.34 -0.96,-0.22 -1.2,0.27 -2.09,-0.41 -0.33,-0.25 -0.71,-0.11 -0.64,0.23 -1.06,-0.16 -0.27,-0.26 -0.64,-0.27 -1.32,-0.06 -3.52,-1.02 -4.71,-2.06 -12.52,-3.59 -0.41,-0.08 -0.8,0.04 -0.18,0.05 -0.34,0.04 -0.4,-0.01 -0.71,-0.26 -2.32,-1.78 -1.74,-2.28 c 4.12,-4.66 7.97,-10.46 12.08,-14.19 q 14.07,-12.77 33.03,-10.92 c 13.34,1.3 21.06,6.66 30.87,13.83 5.86,4.28 11.15,6.33 17.25,2.06 5.22,-3.65 5.41,-9.66 5.47,-15.87 q 0.15,-14.74 0.22,-29.44 z"
     id="path140" />
  <path
     fill="#e8e8ea"
     d="m 1485.3118,444.28296 q 0.13,68.23 0.01,136.47 c -0.07,39.58 0.42,77.56 -0.07,99.74 -0.44,19.52 -5.66,39.58 -13.43,57.78 -20.4,47.82 -64.01,81.14 -115.81,87.09 q -7.24,0.83 -19.95,0.84 -158.14,0.07 -316.26,0.02 -14.56,0 -33.45002,-5.43 c -61.71,-17.73 -102.14,-71.45 -107.06,-134.82 q -0.5,-6.42 -0.5,-19.98 -0.02,-109.61 0,-219.21 l 0.44,18.59 a 0.18,0.18 0 0 0 0.31,0.12 l 0.37,-0.36 q 0.16,-0.16 0.18,0.06 0.14,1.35 0.1,2.62 -0.02,0.54 0.18,0.79 0.19,0.22 0.46,0.24 0.57,0.04 0.77,-0.5 0.22,-0.63 1.09,-0.33 0.32,0.11 0.45,0.43 0.14,0.33 0.42,0.56 a 0.63,0.63 0 0 0 0.89,-0.11 q 0.41,-0.53 1,-0.54 0.34,-0.01 0.52,-0.29 l 0.21,-0.31 q 0.04,-0.08 0.13,-0.05 1.23,0.44 1.75,0.44 0.74,-0.01 0.68,-0.67 -0.04,-0.33 0.3,-0.35 0.19,-0.01 0.38,0 0.21,0.02 0.26,0.23 l 0.1,0.37 a 0.14,0.14 0 0 0 0.26,0.03 q 0.07,-0.13 0.14,-0.27 0.08,-0.15 0.24,-0.21 l 2.42,-0.92 q 0.46,-0.18 0.77,0.2 0.42,0.5 0.94,0.3 c 1.63,-0.63 3.44,-0.23 5.15,-0.58 q 0.48,-0.1 0.92,0.12 0.71,0.36 1.43,0.04 0.33,-0.14 0.68,-0.12 l 1.95,0.08 q 0.48,0.02 0.7,0.45 l 0.45,0.92 a 0.36,0.36 0 0 0 0.56,0.12 q 3.25,-2.67 7.26,-4.05 0.18,-0.07 0.24,0.12 0.04,0.15 0.03,0.29 -0.04,0.64 0.47,-0.04 0.25,-0.34 1.06,0.29 0.75,0.57 0.99,1.48 0.19,0.73 1.14,1 0.4,0.11 0.76,-0.11 0.71,-0.44 0.61,-1.19 -0.05,-0.43 0.3,-0.67 1.16,-0.79 1.67,0.32 0.15,0.34 -0.23,0.31 a 0.2,0.2 0 0 0 -0.15,0.34 l 0.26,0.26 q 0.05,0.06 0,0.11 -0.41,0.47 -0.84,0.5 a 0.32,0.32 0 0 0 -0.29,0.37 q 0.09,0.47 0.64,0.4 0.46,-0.05 0.38,0.4 -0.18,1.08 0.42,1.66 -1.46,4.14 -2.97,8.42 -8.9,25.23 5.78,43.92 c 8.72,11.09 21.96,18.53 36.13,18.5 q 34,-0.09 68.91002,-0.09 a 3.2,3.2 0 0 1 2.65,1.41 q 20.88,30.81 42.28,61.83 4.93,7.15 9.28,14.66 c 2.62,4.53 1.33,10.55 1.34,15.59 q 0.06,65.79 -0.09,131.58 c -0.01,5.14 3.85,9.81 8.98,10.82 q 7.1,1.4 12.52,-4.87 l 40.06,0.01 73.21,-0.21 38.48,0.15 q 3.38,3.68 5.2,4.31 c 7.3,2.51 14.88,-1.53 16.19,-8.97 q 0.13,-0.74 0.13,-9.5 -0.01,-66.38 -0.3,-132.77 c -0.01,-3.52 0.61,-5.7 2.47,-8.44 q 23.92,-35.14 47.75,-70.36 c 0.8,-1.2 1.95,-3.44 3.26,-4.91 q 0.36,-0.39 0.89,-0.39 30.29,0 60.61,0.08 13.31,0.04 19.29,-1.42 16.28,-3.97 26.85,-17.82 13.38,-17.53 6.61,-39.44 0.23,-0.14 0.41,-0.51 0.23,-0.47 0.42,0.02 0.18,0.48 0.76,0.64 0.62,0.18 0.45,-0.45 -0.06,-0.26 0.12,-0.48 a 0.05,1.19 39.5 0 1 0.77,-0.86 q 0.79,-0.11 0.74,-0.94 0,-0.06 0.06,-0.06 0.3,0.03 0.53,-0.21 a 0.17,0.16 56 0 0 0.03,-0.19 q -0.06,-0.12 -0.12,-0.24 -0.06,-0.13 0.09,-0.16 4.1,-0.77 8.24,-1.09 c 1.64,-0.13 3.6,0.7 5.55,0.33 q 0.58,-0.11 0.66,-0.7 l 0.7,-5.5 q 0.06,-0.47 0.37,-0.84 c 0.74,-0.87 0.78,-1.83 1.55,-2.64 q 1.47,-1.56 3.38,-2.49 c 1.09,-0.53 2.64,-0.22 3.68,-1.62 q 0.35,-0.47 0.89,-0.72 l 2.11,-1 q 0.41,-0.19 0.86,-0.19 h 1.18 q 0.49,0 0.67,0.45 0.26,0.66 0.97,0.29 0.14,-0.07 0.2,-0.22 0.05,-0.12 0.13,-0.24 0.14,-0.23 0.16,0.04 l 0.71,9.74 q 0.01,0.19 0.2,0.19 0.14,0 0.28,0 0.26,0.01 0.14,-0.22 -0.14,-0.26 -0.03,-0.45 0.08,-0.12 0.11,0.02 0.06,0.26 0.2,0.46 0.3,0.45 0.51,-0.04 c 1.37,-3.07 0.65,-10.17 0.38,-13.59 -0.22,-2.73 0.18,-5.43 0.12,-8.21 -0.05,-1.92 0.47,-3.78 0.51,-5.8 z"
     id="path141" />
  <path
     fill="#180043"
     d="m 928.71178,447.40296 q 0.17,0.11 0.28,0.16 0.13,0.06 0.07,0.18 -0.06,0.12 -0.11,0.23 a 0.4,0.38 39.5 0 0 0.05,0.42 l 0.56,0.69 a 0.05315073,0.05315073 0 0 1 -0.08,0.07 q -0.14,-0.14 -0.32,-0.21 -0.1,-0.05 -0.21,0 -1.02,0.47 -0.42,1.51 0.41,0.71 1.14,0.56 0.44,-0.09 0.78,0.21 1.08,0.95 2.96,1.92 c 3.21,1.65 4.32,4.69 7.22,6.51 q 3.25,2.05 5.04,3.72 0.83,0.77 1.53,0.57 -0.28,0.45 0.76,0.56 -5.72,16.45 -8.36,24.74 -0.9,2.83 -0.91,6.45 c 0.67,12.69 11.32,22.02 23.86,22.05 q 35.87,0.1 71.75002,-0.2 9.25,-0.08 14.42,7.77 5.97,9.07 24.53,36.28 13.61,19.94 27.34,39.86 c 2.37,3.43 5.88,8.87 6.64,11.89 1.26,4.98 1.01,8.79 0.99,15.17 l -0.13,56.03 -0.09,29.97 q -0.23,36.94 -0.21,48.98 0.01,4.2 -1.87,7.95 -5.42,6.27 -12.52,4.87 c -5.13,-1.01 -8.99,-5.68 -8.98,-10.82 q 0.15,-65.79 0.09,-131.58 c -0.01,-5.04 1.28,-11.06 -1.34,-15.59 q -4.35,-7.51 -9.28,-14.66 -21.4,-31.02 -42.28,-61.83 a 3.2,3.2 0 0 0 -2.65,-1.41 q -34.91002,0 -68.91002,0.09 c -14.17,0.03 -27.41,-7.41 -36.13,-18.5 q -14.68,-18.69 -5.78,-43.92 1.51,-4.28 2.97,-8.42 z"
     id="path142" />
  <path
     fill="#ff4f48"
     d="m 1412.1418,455.13296 q 5.73,16.63 11.34,33.62 0.82,2.49 1.15,5.01 0.41,2.94 -0.8,5.29 -0.09,0.18 -0.23,0.23 -0.2,0.07 -0.35,-0.09 -0.07,-0.06 -0.09,0.02 -0.03,0.12 -0.11,0.23 -0.04,0.05 -0.08,0.01 c -1.95,-1.62 -6.19,-1.56 -8.63,-1.75 q -0.47,-0.03 -0.83,-0.35 -1.04,-0.94 -1.5,-1.06 -4.37,-1.13 -10.17,-0.44 c -0.86,0.1 -1.73,0.83 -2.95,0.3 q -0.43,-0.19 -0.88,-0.08 c -0.97,0.22 -1.99,-0.35 -2.71,-0.42 q -8.03,-0.81 -13.01,0.54 -5.93,1.61 -9.98,0.89 -1.44,-0.25 -4.5,0.62 c -3.37,0.97 -6.28,1.42 -9.48,2.11 q -2.44,0.53 -5.12,0.69 -3.78,0.24 -5.16,0.64 c -1.62,0.48 -3.21,0.47 -4.31,0.7 q -12.29,2.62 -18.03,4.57 -2.62,0.89 -5.65,3.74 -0.77,0.72 -1.69,1.36 -0.9,0.62 -1.74,1.32 -1.44,1.19 -2.75,1.68 -3.71,1.37 -7.6,2.12 a 1.07,1.03 11.8 0 0 -0.65,0.41 c -0.88,1.22 -2.16,0.51 -3.13,0.58 q -5.21,0.4 -10.25,1.84 -0.47,0.14 -0.87,0.33 -4.28,2.06 -9.03,2.37 -0.48,0.03 -0.81,-0.32 -0.21,-0.23 -0.51,-0.36 -0.37,-0.16 -0.97,0 -4.7,1.21 -7.27,1.52 c -3.06,0.36 -5.8,1.26 -8.57,1.39 -3.06,0.14 -5.08,0.8 -7.5,0.79 -1.83,-0.01 -3.08,0.27 -4.69,0.5 q -8.61,1.21 -17.28,1.52 -0.59,0.02 -1.85,-0.26 c -1.2,-0.27 -2.38,0.22 -3.53,0.05 -1.42,-0.22 -2.53,-0.38 -4.03,-0.28 q -7.39,0.49 -14.81,0.21 -0.43,-0.01 -0.67,0.35 -0.58,0.89 -1.96,0.35 -1.53,-0.6 -4.34,-0.54 -9.99,0.24 -19.96,0.95 c -3.33,0.24 -7.67,0.02 -10.86,-0.24 -2.78,-0.22 -5.51,-0.08 -8.24,-0.44 q -9.21,-1.21 -17.99,-0.38 a 4.1,4.13 48 0 1 -1.21,-0.06 q -4.94,-1 -12,-0.3 -1.81,0.18 -2.45,0.43 -0.54,0.22 -1.09,0.06 l -1.44,-0.42 q -0.52,-0.15 -0.91,0.23 -0.15,0.16 -0.36,0.22 -0.61,0.18 -0.86,0.13 c -1.95,-0.42 -4.22,0.14 -5.81,-0.67 q -0.43,-0.23 -0.91,-0.12 -0.81,0.19 -1.64,0.18 c -1.1,-0.01 -1.72,-0.77 -3.09,-0.49 a 1.37,1.37 0 0 1 -0.92,-0.11 q -1.52,-0.75 -3.26,-0.38 -0.46,0.1 -0.78,-0.24 -0.39,-0.41 -0.97,-0.04 c -0.9,-0.08 -2.79,-0.82 -3.43,-0.78 q -0.21,0.01 -0.41,0.07 -0.46,0.14 -0.88,-0.1 c -2.09,-1.2 -4.56,-0.86 -6.39,-1.27 q -10.72,-2.39 -17.65,-2.65 -6.44,-0.25 -12.73,-1.75 -3.47,-0.83 -8.77,-1.55 -1.69,-0.23 -2.66,-1.69 -0.27,-0.42 -0.76,-0.5 -2.29,-0.35 -4.58,-0.35 -1.26,0 -4.23,-2.38 a 1.06,1.06 0 0 0 -1.03,-0.16 q -0.86,0.32 -1.24,-0.49 a 0.75,0.76 79.2 0 0 -0.63,-0.42 q -1.38,-0.06 -2.31,-0.97 -0.38,-0.38 -0.87,-0.59 -9.6,-4.19 -13.71,-4.77 -20.07,-2.85 -29.87002,-4.91 -8.47,-1.78 -26.28,-6.76 c -3.83,-1.07 -7.89,-0.44 -11.75,-0.83 q -0.55,-0.05 -1.04,0.21 l -0.28,0.16 q -0.54,0.29 -1.11,0.07 -1.21,-0.47 -2.51,-0.29 a 0.28,0.29 85.2 0 0 -0.24,0.28 q 0,0.13 -0.01,0.26 -0.01,0.4 -0.41,0.41 c -3.64,0.04 -6.57,0.89 -10.13,1.4 q -0.54,0.08 -0.96,0.41 -0.81,0.64 -1.8,0.42 -0.17,-0.04 -0.18,0.14 0,0.18 -0.2,0.28 -0.18,0.09 -0.32,-0.06 -0.32,-0.34 -0.75,-0.54 0.01,-3.62 0.91,-6.45 2.64,-8.29 8.36,-24.74 l 1.58,-4.77 3.45,-0.17 q 0.68,-0.03 0.68,0.65 v 1.01 q 0,0.36 0.36,0.37 1.23,0.04 2.09,1 a 0.15,0.15 0 0 0 0.24,-0.03 q 0.08,-0.16 0.07,-0.38 a 0.1,0.1 0 0 1 0.11,-0.11 q 8.58,1 11.77,0.31 7.63,-1.65 15.8,-2.01 c -2.36,7.14 -5.21,13.77 -0.25,20.55 q 2.25,3.09 5.81,4.07 c 7.19,1.98 12.78002,-2.93 16.41002,-8.48 2.55,-3.92 20.18,-2.38 24.3,-1.46 4.93,1.11 9.94,3.61 14.55,6.02 q 2.74,1.44 6.26,1.26 -0.58,0.5 1.74,2.28 0.31,0.25 0.71,0.26 0.16,0.01 0.34,-0.04 0.39,-0.12 0.8,-0.04 7.81,1.53 12.52,3.59 2.2,0.96 3.52,1.02 0.37,0.01 0.64,0.27 0.42,0.39 1.06,0.16 0.38,-0.14 0.71,0.11 0.89,0.68 2.09,0.41 0.54,-0.12 0.96,0.22 2,1.57 4.51,1.85 0.61,0.06 0.63,-0.05 0.03,-0.14 0.01,-0.27 a 0.12,0.12 0 0 1 0.13,-0.13 q 10.31,0.73 20.63,1.39 c 5.54,0.36 11.09,0.27 16.65,0.27 a 0.56,0.54 22 0 0 0.39,-0.16 q 0.34,-0.31 1.07,-0.32 12.39,-0.11 17,-1.05 3.35,-0.68 5.82,-0.83 5.68,-0.36 5.84,-0.38 5.74,-0.67 12.34,-0.55 2.86,0.05 6.83,-0.54 0.37,-0.05 0.27,0.31 -0.05,0.22 0.12,0.37 0.11,0.09 0.15,-0.04 0.27,-0.77 0.74,-0.8 c 1.63,14.84 19.37,15.44 24.5,2.91 l 0.26,0.26 a 0.39,0.39 0 0 0 0.66,-0.33 q -0.22,-1.31 0.58,-2.56 a 1.58,1.57 19.5 0 1 1.52,-0.72 c 2.23,0.28 4.14,1.36 6.24,1.53 q 9.93,0.79 12.63,0.59 5.83,-0.42 11.68,-0.55 c 1.79,-0.04 4.16,-0.69 6.43,-0.26 q 0.1,0.01 0.16,-0.05 l 0.24,-0.24 q 0.06,-0.06 0.15,-0.06 5.17,0.17 10.33,0.29 4.56,0.11 9.1,-0.32 c 0.64,-0.06 0.96,0.15 1.65,0.1 q 10.49,-0.83 21.01,-0.87 c 2.27,-0.01 4.96,-0.53 7.49,-0.62 6.05,-0.19 11.89,-2.4 17.91,-2.55 q 0.52,-0.01 0.97,0.25 0.51,0.29 0.82,-0.12 0.27,-0.33 0.69,-0.24 0.57,0.14 1,-0.18 0.33,-0.26 0.24,-0.67 -0.04,-0.17 0.13,-0.24 0.24,-0.12 0.25,-0.12 1.27,-0.03 2.46,-0.5 0.5,-0.2 0.87,-0.6 0.6,-0.68 1.5,-0.73 a 0.09,0.09 0 0 0 0.06,-0.16 q -0.14,-0.13 -0.27,-0.26 a 0.09,0.09 0 0 1 0.11,-0.14 q 0.62,0.33 0.64,0.02 5.81,-0.37 11.88,-4.27 c 7.34,-4.73 21.39,-4.97 29.51,-3.68 2.91,0.47 4.6,3.6 6.45,5.57 5.37,5.74 12.43,7.44 18.78,1.92 q 5.98,-5.18 3.37,-14.23 -2.07,-7.19 -4.51,-14.31 0.54,-0.2 0.75,0.26 0.06,0.13 0.1,-0.01 0.03,-0.14 0.07,-0.27 a 0.15,0.15 0 0 1 0.29,0.04 q -0.02,2.26 1.97,2.61 0.16,0.03 0.24,0.18 0.14,0.26 0.11,0.51 -0.01,0.04 0.01,0 0.05,-0.16 0.09,-0.33 0.04,-0.13 0.17,-0.12 2.35,0.15 4.68,0.49 c 1.66,0.23 3.43,-0.15 5.16,-0.13 q 9.73,0.1 19.44,-0.69 a 0.85,0.86 17.4 0 0 0.59,-0.31 q 0.43,-0.56 1.57,-0.6 z"
     id="path143" />
  <path
     fill="#180043"
     d="m 1193.9118,492.55296 c -5.13,12.53 -22.87,11.93 -24.5,-2.91 -2,-19.64 29.86,-17.83 24.5,2.91 z"
     id="path144" />
  <path
     fill="#180043"
     d="m 1445.9918,479.68296 0.63,2.08 q 6.77,21.91 -6.61,39.44 -10.57,13.85 -26.85,17.82 -5.98,1.46 -19.29,1.42 -30.32,-0.08 -60.61,-0.08 -0.53,0 -0.89,0.39 c -1.31,1.47 -2.46,3.71 -3.26,4.91 q -23.83,35.22 -47.75,70.36 c -1.86,2.74 -2.48,4.92 -2.47,8.44 q 0.29,66.39 0.3,132.77 0,8.76 -0.13,9.5 c -1.31,7.44 -8.89,11.48 -16.19,8.97 q -1.82,-0.63 -5.2,-4.31 -1.53,-3.97 -1.55,-7.65 -0.08,-22.87 -0.32,-46.12 l 0.08,-30.85 -0.16,-47.57 q -0.29,-15.49 -0.14,-19.97 0.24,-7.05 3.5,-11.73 6.93,-9.94 13.77,-19.94 20.53,-29.93 40.62,-60.15 c 3.61,-5.42 7.41,-9.65 14.08,-9.65 q 33.5,-0.02 67,-0.07 8.94,-0.01 11.75,-0.7 14.22,-3.52 18.24,-17.33 0.43,-0.82 1.19,-0.46 0.19,0.09 0.19,0.3 v 0.37 q 0,0.14 0.06,0.02 l 0.79,-1.73 q 0.2,-0.43 0.59,-0.69 3.32,-2.21 3,-6.4 a 0.9,0.9 0 0 1 0.34,-0.78 l 4.72,-3.7 a 0.7,0.68 28.6 0 1 0.53,-0.15 q 0.36,0.04 0.66,0.22 0.35,0.21 0.76,0.21 0.53,-0.01 0.93,-0.32 0.6,-0.46 -0.16,-0.49 -0.6,-0.03 -0.72,-0.64 -0.08,-0.46 0.38,-0.46 3.02,0.01 4.98,-3.76 a 0.25,0.39 60.5 0 1 0.65,0.04 q -0.19,0.37 0.26,0.39 0.32,0.02 0.43,-0.28 0.21,-0.54 -0.04,-1.09 a 0.26,0.26 0 0 1 0.35,-0.34 q 0.33,0.17 0.25,0.45 -0.05,-0.31 0,-0.6 0.06,-0.33 0.38,-0.21 0.43,0.15 0.93,0.12 z"
     id="path145" />
  <path
     fill="#ff3d4f"
     d="m 1424.6318,493.76296 -0.09,5.9 q -4.02,13.81 -18.24,17.33 -2.81,0.69 -11.75,0.7 -33.5,0.05 -67,0.07 c -6.67,0 -10.47,4.23 -14.08,9.65 q -20.09,30.22 -40.62,60.15 -0.38,-0.28 -0.8,-0.17 -0.36,0.1 -0.38,0.39 0,0.02 0,0 -0.01,-0.14 -0.01,-0.28 0,-0.05 -0.15,-0.1 l -3.77,-1.07 q -0.38,-0.11 -0.68,-0.38 -2.38,-2.14 -5.21,-2.08 c 8.49,-4.87 22.2,-16.54 20.7,-27.38 -0.95,-6.88 -8.39,-10.5 -14.04,-6.81 q -0.99,0.65 -5.1,5.52 -6.49,7.7 -15.82,11.57 c -4.5,1.86 -8.95,2.22 -13.79,2.15 q -10.25,-0.14 -20.5,0.09 -3.29,0.07 -5.98,3.24 0.01,-0.79 -0.19,-0.95 -0.21,-0.16 -0.25,0.1 -0.03,0.28 -0.24,0.32 -0.32,0.04 -0.51,-0.21 -0.42,-0.56 -1.28,-0.22 a 0.91,0.92 51.2 0 1 -0.85,-0.09 c -1.57,-1.06 -3.6,0.04 -5.22,-0.06 q -4.49,-0.28 -8.97,-0.17 -8.68,0.22 -17.36,0.65 c -2.63,0.13 -5.6,1.01 -8.57,0.99 q -1.45,-0.01 -2.67,0.53 -1.27,0.56 -2.59,1.06 -3.08,-5.28 -9.58,-5.25 -10.24,0.05 -20.5,0.18 -14.86,0.19 -25.17,-10.21 -1.44,-1.45 -6.12,-7.11 c -4.67,-5.66 -15.28,-3.98 -16.39,4.17 q -0.67,4.87 1.73,9.98 -1.61,0.92 -1.03,-2.13 a 0.05,0.05 0 0 0 -0.08,-0.04 q -0.25,0.26 -0.49,0.52 a 0.12,0.12 0 0 1 -0.2,-0.12 q 0.33,-0.85 0.08,-1.58 -0.17,-0.51 -0.68,-0.35 c -0.64,0.21 -1.29,0.51 -1.96,0.48 q -2.77,-0.11 -4.98,-1.15 -18.56,-27.21 -24.53,-36.28 -5.17,-7.85 -14.42,-7.77 -35.88002,0.3 -71.75002,0.2 c -12.54,-0.03 -23.19,-9.36 -23.86,-22.05 q 0.43,0.2 0.75,0.54 0.14,0.15 0.32,0.06 0.2,-0.1 0.2,-0.28 0.01,-0.18 0.18,-0.14 0.99,0.22 1.8,-0.42 0.42,-0.33 0.96,-0.41 c 3.56,-0.51 6.49,-1.36 10.13,-1.4 q 0.4,-0.01 0.41,-0.41 0.01,-0.13 0.01,-0.26 a 0.28,0.29 85.2 0 1 0.24,-0.28 q 1.3,-0.18 2.51,0.29 0.57,0.22 1.11,-0.07 l 0.28,-0.16 q 0.49,-0.26 1.04,-0.21 c 3.86,0.39 7.92,-0.24 11.75,0.83 q 17.81,4.98 26.28,6.76 9.80002,2.06 29.87002,4.91 4.11,0.58 13.71,4.77 0.49,0.21 0.87,0.59 0.93,0.91 2.31,0.97 a 0.75,0.76 79.2 0 1 0.63,0.42 q 0.38,0.81 1.24,0.49 a 1.06,1.06 0 0 1 1.03,0.16 q 2.97,2.38 4.23,2.38 2.29,0 4.58,0.35 0.49,0.08 0.76,0.5 0.97,1.46 2.66,1.69 5.3,0.72 8.77,1.55 6.29,1.5 12.73,1.75 6.93,0.26 17.65,2.65 c 1.83,0.41 4.3,0.07 6.39,1.27 q 0.42,0.24 0.88,0.1 0.2,-0.06 0.41,-0.07 c 0.64,-0.04 2.53,0.7 3.43,0.78 q 0.58,-0.37 0.97,0.04 0.32,0.34 0.78,0.24 1.74,-0.37 3.26,0.38 a 1.37,1.37 0 0 0 0.92,0.11 c 1.37,-0.28 1.99,0.48 3.09,0.49 q 0.83,0.01 1.64,-0.18 0.48,-0.11 0.91,0.12 c 1.59,0.81 3.86,0.25 5.81,0.67 q 0.25,0.05 0.86,-0.13 0.21,-0.06 0.36,-0.22 0.39,-0.38 0.91,-0.23 l 1.44,0.42 q 0.55,0.16 1.09,-0.06 0.64,-0.25 2.45,-0.43 7.06,-0.7 12,0.3 a 4.1,4.13 48 0 0 1.21,0.06 q 8.78,-0.83 17.99,0.38 c 2.73,0.36 5.46,0.22 8.24,0.44 3.19,0.26 7.53,0.48 10.86,0.24 q 9.97,-0.71 19.96,-0.95 2.81,-0.06 4.34,0.54 1.38,0.54 1.96,-0.35 0.24,-0.36 0.67,-0.35 7.42,0.28 14.81,-0.21 c 1.5,-0.1 2.61,0.06 4.03,0.28 1.15,0.17 2.33,-0.32 3.53,-0.05 q 1.26,0.28 1.85,0.26 8.67,-0.31 17.28,-1.52 c 1.61,-0.23 2.86,-0.51 4.69,-0.5 2.42,0.01 4.44,-0.65 7.5,-0.79 2.77,-0.13 5.51,-1.03 8.57,-1.39 q 2.57,-0.31 7.27,-1.52 0.6,-0.16 0.97,0 0.3,0.13 0.51,0.36 0.33,0.35 0.81,0.32 4.75,-0.31 9.03,-2.37 0.4,-0.19 0.87,-0.33 5.04,-1.44 10.25,-1.84 c 0.97,-0.07 2.25,0.64 3.13,-0.58 a 1.07,1.03 11.8 0 1 0.65,-0.41 q 3.89,-0.75 7.6,-2.12 1.31,-0.49 2.75,-1.68 0.84,-0.7 1.74,-1.32 0.92,-0.64 1.69,-1.36 3.03,-2.85 5.65,-3.74 5.74,-1.95 18.03,-4.57 c 1.1,-0.23 2.69,-0.22 4.31,-0.7 q 1.38,-0.4 5.16,-0.64 2.68,-0.16 5.12,-0.69 c 3.2,-0.69 6.11,-1.14 9.48,-2.11 q 3.06,-0.87 4.5,-0.62 4.05,0.72 9.98,-0.89 4.98,-1.35 13.01,-0.54 c 0.72,0.07 1.74,0.64 2.71,0.42 q 0.45,-0.11 0.88,0.08 c 1.22,0.53 2.09,-0.2 2.95,-0.3 q 5.8,-0.69 10.17,0.44 0.46,0.12 1.5,1.06 0.36,0.32 0.83,0.35 c 2.44,0.19 6.68,0.13 8.63,1.75 q 0.04,0.04 0.08,-0.01 0.08,-0.11 0.11,-0.23 0.02,-0.08 0.09,-0.02 0.15,0.16 0.35,0.09 0.14,-0.05 0.23,-0.23 1.21,-2.35 0.8,-5.29 z"
     id="path146" />
  <path
     fill="#180043"
     d="m 1261.8518,583.87296 c -14,8.19 -27.44,7.6 -42.55,6.74 -7.02,-0.41 -12.6,-2.69 -14.23,-10.13 q -0.97,-4.45 2.25,-8.23 2.69,-3.17 5.98,-3.24 10.25,-0.23 20.5,-0.09 c 4.84,0.07 9.29,-0.29 13.79,-2.15 q 9.33,-3.87 15.82,-11.57 4.11,-4.87 5.1,-5.52 c 5.65,-3.69 13.09,-0.07 14.04,6.81 1.5,10.84 -12.21,22.51 -20.7,27.38 z"
     id="path147" />
  <path
     fill="#180043"
     d="m 1158.6218,574.20296 c 5.24,17.28 -15.38,16.91 -25.57,16.89 -10.35,-0.02 -18.02,-0.46 -26.49,-4.52 q -15.05,-7.21 -23.97,-20.61 -2.4,-5.11 -1.73,-9.98 c 1.11,-8.15 11.72,-9.83 16.39,-4.17 q 4.68,5.66 6.12,7.11 10.31,10.4 25.17,10.21 10.26,-0.13 20.5,-0.18 6.5,-0.03 9.58,5.25 z"
     id="path148" />
  <path
     fill="#fc235e"
     d="m 1073.2518,561.59296 q 2.21,1.04 4.98,1.15 c 0.67,0.03 1.32,-0.27 1.96,-0.48 q 0.51,-0.16 0.68,0.35 0.25,0.73 -0.08,1.58 a 0.12,0.12 0 0 0 0.2,0.12 q 0.24,-0.26 0.49,-0.52 a 0.05,0.05 0 0 1 0.08,0.04 q -0.58,3.05 1.03,2.13 8.92,13.4 23.97,20.61 c 8.47,4.06 16.14,4.5 26.49,4.52 10.19,0.02 30.81,0.39 25.57,-16.89 q 1.32,-0.5 2.59,-1.06 1.22,-0.54 2.67,-0.53 c 2.97,0.02 5.94,-0.86 8.57,-0.99 q 8.68,-0.43 17.36,-0.65 4.48,-0.11 8.97,0.17 c 1.62,0.1 3.65,-1 5.22,0.06 a 0.91,0.92 51.2 0 0 0.85,0.09 q 0.86,-0.34 1.28,0.22 0.19,0.25 0.51,0.21 0.21,-0.04 0.24,-0.32 0.04,-0.26 0.25,-0.1 0.2,0.16 0.19,0.95 -3.22,3.78 -2.25,8.23 c 1.63,7.44 7.21,9.72 14.23,10.13 15.11,0.86 28.55,1.45 42.55,-6.74 q 2.83,-0.06 5.21,2.08 0.3,0.27 0.68,0.38 l 3.77,1.07 q 0.15,0.05 0.15,0.1 0,0.14 0.01,0.28 0,0.02 0,0 0.02,-0.29 0.38,-0.39 0.42,-0.11 0.8,0.17 -6.84,10 -13.77,19.94 -3.26,4.68 -3.5,11.73 -0.15,4.48 0.14,19.97 l -0.17,1.51 q -0.04,0.31 -0.34,0.4 l -2.07,0.65 a 0.75,0.78 51.2 0 1 -0.57,-0.05 q -1.51,-0.8 -3.28,-0.71 -9.16,0.45 -18.25,1.83 -3.12,0.48 -5.14,0.66 -3.52,0.33 -5.12,0.65 -2.71,0.56 -5.79,1.08 -3.07,-0.92 -7.05,-0.89 -27.7,0.23 -55.39,0.44 -1.29,0.01 -4.05,0.82 l -0.34,-1.96 q -0.08,-0.48 -0.55,-0.62 -1.88,-0.59 -3.45,-2.24 -1.71,-1.8 -4.52,-2.39 -0.1,-0.02 -0.17,0.02 -0.12,0.07 -0.16,0.22 -0.04,0.13 -0.17,0.08 c -1.59,-0.65 -3.1,-0.64 -4.65,-1.4 q -1.92,-0.94 -4.44,-1.56 c -1.44,-0.35 -2.59,-1.22 -4.28,-1.46 q -0.95,-0.13 -1.75,-0.59 c -1.26,-0.71 -2.38,-0.24 -3.71,-0.83 q -4.62,-2.07 -9.62,-2.74 -0.54,-0.07 -1.06,0.1 -0.08,0.03 -0.12,-0.05 -0.08,-0.17 -0.1,-0.37 -0.02,-0.27 -0.25,-0.13 -0.29,0.19 -0.45,-0.01 -0.25,-0.32 -0.24,-0.72 0,-0.38 -0.25,-0.43 c 0.02,-6.38 0.27,-10.19 -0.99,-15.17 -0.76,-3.02 -4.27,-8.46 -6.64,-11.89 q -13.73,-19.92 -27.34,-39.86 z m 147.5606,55.088 a 10.09,10.09 0 0 0 -10.0724,-10.1076 l -57.6999,-0.1007 a 10.09,10.09 0 0 0 -10.1076,10.0723 l -0,0.7 a 10.09,10.09 0 0 0 10.0724,10.1076 l 57.6999,0.1007 a 10.09,10.09 0 0 0 10.1076,-10.0723 z"
     id="path149" />
  <rect
     fill="#180043"
     x="1144.0068"
     y="604.45929"
     transform="rotate(0.1)"
     width="77.879997"
     height="20.879999"
     rx="10.09"
     id="rect149" />
  <path
     fill="#ca2176"
     d="m 1108.2218,628.51296 q 0.25,0.05 0.25,0.43 -0.01,0.4 0.24,0.72 0.16,0.2 0.45,0.01 0.23,-0.14 0.25,0.13 0.02,0.2 0.1,0.37 0.04,0.08 0.12,0.05 0.52,-0.17 1.06,-0.1 5,0.67 9.62,2.74 c 1.33,0.59 2.45,0.12 3.71,0.83 q 0.8,0.46 1.75,0.59 c 1.69,0.24 2.84,1.11 4.28,1.46 q 2.52,0.62 4.44,1.56 c 1.55,0.76 3.06,0.75 4.65,1.4 q 0.13,0.05 0.17,-0.08 0.04,-0.15 0.16,-0.22 0.07,-0.04 0.17,-0.02 2.81,0.59 4.52,2.39 1.57,1.65 3.45,2.24 0.47,0.14 0.55,0.62 l 0.34,1.96 c -7.02,3.21 -6.69,14.19 -0.62,17.7 q 2.57,1.48 9.09,1.46 25.79,-0.09 51.58,-0.1 c 6.31,0 11.34,-2.39 12,-8.9 q 0.68,-6.68 -5.56,-10.53 3.08,-0.52 5.79,-1.08 1.6,-0.32 5.12,-0.65 2.02,-0.18 5.14,-0.66 9.09,-1.38 18.25,-1.83 1.77,-0.09 3.28,0.71 a 0.75,0.78 51.2 0 0 0.57,0.05 l 2.07,-0.65 q 0.3,-0.09 0.34,-0.4 l 0.17,-1.51 0.16,47.57 c -2.38,0.3 -4.85,0.65 -7.1,0.83 q -14.37,1.14 -28.57,1.59 -2.69,-6.37 -10.41,-6.41 -26.63,-0.15 -53.25,0.08 c -5.64,0.05 -10.82,0.1 -13.05,6.42 q -0.74,0.12 -0.9,0.69 -0.09,0.3 -0.31,0.08 -0.11,-0.1 -0.22,-0.18 -0.23,-0.16 -0.55,-0.21 -7.83,-1.07 -15.7,-1.82 -2.43,-0.23 -4.85,-0.54 -0.49,-0.06 -0.83,-0.41 -0.59,-0.6 -1.33,-0.48 c -1.75,0.28 -3.14,-0.02 -5.01,-0.57 q -1.14,-0.33 -5.71,-1.3 z"
     id="path150" />
  <path
     fill="#180043"
     d="m 1214.9918,645.22296 q 6.24,3.85 5.56,10.53 c -0.66,6.51 -5.69,8.9 -12,8.9 q -25.79,0.01 -51.58,0.1 -6.52,0.02 -9.09,-1.46 c -6.07,-3.51 -6.4,-14.49 0.62,-17.7 q 2.76,-0.81 4.05,-0.82 27.69,-0.21 55.39,-0.44 3.98,-0.03 7.05,0.89 z"
     id="path151" />
  <path
     fill="#180043"
     d="m 1220.2118,689.19296 q 2.36,8.19 -3.62,12.35 c -2.51,1.74 -6.98,2.03 -9.79,2.01 q -26.25,-0.2 -52.5,0.13 c -8.52,0.1 -12.52,-6.56 -10.8,-14.4 2.23,-6.32 7.41,-6.37 13.05,-6.42 q 26.62,-0.23 53.25,-0.08 7.72,0.04 10.41,6.41 z"
     id="path152" />
  <path
     fill="#802fa7"
     d="m 1108.0918,684.54296 q 4.57,0.97 5.71,1.3 c 1.87,0.55 3.26,0.85 5.01,0.57 q 0.74,-0.12 1.33,0.48 0.34,0.35 0.83,0.41 2.42,0.31 4.85,0.54 7.87,0.75 15.7,1.82 0.32,0.05 0.55,0.21 0.11,0.08 0.22,0.18 0.22,0.22 0.31,-0.08 0.16,-0.57 0.9,-0.69 c -1.72,7.84 2.28,14.5 10.8,14.4 q 26.25,-0.33 52.5,-0.13 c 2.81,0.02 7.28,-0.27 9.79,-2.01 q 5.98,-4.16 3.62,-12.35 14.2,-0.45 28.57,-1.59 c 2.25,-0.18 4.72,-0.53 7.1,-0.83 l -0.08,30.85 c -4.09,-1.14 -8.04,0.23 -11.49,0.25 q -3.26,0.01 -6.51,0.06 -0.28,0 -0.53,0.19 -0.34,0.25 -0.76,0.25 l -12.96,0.01 q -0.3,0 -0.31,-0.22 v -0.01 q 0,-0.22 0.22,-0.23 2.47,-0.1 4.96,-0.04 0.01,0 0.01,0 0,0 0,-0.01 0,-0.01 -0.02,-0.01 c -4.02,0.02 -7.69,-0.13 -11.93,0.36 -8.35,0.96 -17.22,0.88 -22.92,0.67 q -6.25,-0.24 -12.51,0.02 c -0.79,0.04 -1.74,-0.37 -2.66,-0.34 q -15.84,0.38 -23.58,-0.37 -4.5,-0.44 -7.51,-0.36 -0.99,0.02 -2.45,-0.32 c -1.94,-0.47 -4.86,0.08 -6.15,0.02 q -6.27,-0.31 -12.55,-0.43 c -2.14,-0.04 -4.22,-1.06 -6.35,-0.96 q -6.18,0.3 -10.59,-0.13 -0.56,-0.06 -0.67,-0.61 -0.13,-0.71 -0.54,-0.9 z"
     id="path153" />
  <path
     fill="#4744e2"
     d="m 1108.0018,714.51296 q 0.41,0.19 0.54,0.9 0.11,0.55 0.67,0.61 4.41,0.43 10.59,0.13 c 2.13,-0.1 4.21,0.92 6.35,0.96 q 6.28,0.12 12.55,0.43 c 1.29,0.06 4.21,-0.49 6.15,-0.02 q 1.46,0.34 2.45,0.32 3.01,-0.08 7.51,0.36 7.74,0.75 23.58,0.37 c 0.92,-0.03 1.87,0.38 2.66,0.34 q 6.26,-0.26 12.51,-0.02 c 5.7,0.21 14.57,0.29 22.92,-0.67 4.24,-0.49 7.91,-0.34 11.93,-0.36 q 0.02,0 0.02,0.01 0,0.01 0,0.01 0,0 -0.01,0 -2.49,-0.06 -4.96,0.04 -0.22,0.01 -0.22,0.23 v 0.01 q 0.01,0.22 0.31,0.22 l 12.96,-0.01 q 0.42,0 0.76,-0.25 0.25,-0.19 0.53,-0.19 3.25,-0.05 6.51,-0.06 c 3.45,-0.02 7.4,-1.39 11.49,-0.25 q 0.24,23.25 0.32,46.12 0.02,3.68 1.55,7.65 l -38.48,-0.15 q 0.94,-0.96 3.56,-2.81 c 8.26,-5.83 4.53,-18.95 -6.45,-19.01 q -17.15,-0.11 -69.25,0.06 c -10.24,0.04 -14.56,11.87 -6.97,18.19 q 2.77,2.3 5.9,3.78 l -40.06,-0.01 q 1.88,-3.75 1.87,-7.95 -0.02,-12.04 0.21,-48.98 z"
     id="path154" />
  <path
     fill="#180043"
     d="m 1219.1918,771.24296 -73.21,0.21 q -3.13,-1.48 -5.9,-3.78 c -7.59,-6.32 -3.27,-18.15 6.97,-18.19 q 52.1,-0.17 69.25,-0.06 c 10.98,0.06 14.71,13.18 6.45,19.01 q -2.62,1.85 -3.56,2.81 z"
     id="path155" />
  <path
     fill="#fe9637"
     d="m 1226.2118,347.89296 q 3.95,6.58 4.78,14.04 -0.6,1.02 -1.07,1.06 -0.11,0.01 -0.17,-0.08 -0.03,-0.05 -0.05,-0.09 -0.05,-0.12 -0.15,-0.08 -0.22,0.08 -0.08,0.36 a 0.39,0.38 86 0 1 -0.46,0.53 q -4.29,-1.26 -8.21,-1.06 -1.61,0.09 -3.18,-0.27 a 0.55,0.53 84.1 0 1 -0.37,-0.31 q -0.14,-0.32 -0.49,-0.39 -0.34,-0.06 -0.42,-0.09 -4.48,-1.64 -9.25,-0.63 -0.54,0.11 -0.29,0.61 0.12,0.23 0.53,0.32 0.36,0.09 0.59,-0.15 0.26,-0.28 0.54,-0.02 0.27,0.26 0.21,0.59 -0.05,0.33 -0.38,0.36 -3.42,0.31 -6.86,0.06 c -1.18,-0.09 -2.24,0.37 -3.53,0.13 -4.63,-0.87 -9.62,-0.71 -14.34,-0.86 -1.91,-0.06 -3.92,0.56 -6.01,0.46 q -5.17,-0.23 -10.35,-0.06 c -1.96,0.06 -4.13,-0.41 -6.49,0.51 q -0.28,0.11 -0.46,-0.13 l -0.24,-0.31 q -0.21,-0.29 -0.56,-0.27 -3.12,0.12 -6.22,-0.12 -2.97,-0.24 -5.34,0.1 c -4.65,0.67 -7.4,0.92 -13.21,0.04 q -0.57,-0.09 -1.18,0.42 -0.29,0.25 -0.61,0.05 -0.68,-0.39 -1.62,-0.52 c -1.94,-3.4 -4.28,-6.88 -5.44,-10.43 q -2.22,-6.79 -2.18,-13.87 0,-0.57 0.54,-0.38 c 14.99,5.36 28.34,-1.64 44.46,-6.1 20.53,-5.69 44.7,-1.72 57.56,16.58 z"
     id="path156" />
  <path
     fill="#ff743f"
     d="m 1230.9918,361.93296 q 0.43,15.93 0.35,31.81 c -0.06,11.83 -7.9,19.52 -15.12,27.22 q -2.07,2.2 -2.25,6.93 0.78,2.74 -4.29,1.91 a 0.3,0.3 0 0 1 -0.25,-0.3 q 0,-0.14 -0.01,-0.29 -0.01,-0.35 -0.36,-0.38 -5.66,-0.53 -11.34,-0.85 c -2.5,-0.15 -5,0.13 -7.52,0.26 q -0.48,0.03 -0.86,0.34 -1.39,1.17 -3.15,0.67 -0.04,-0.01 -0.05,0.03 -0.06,0.12 -0.12,0.26 a 0.11,0.1 44.3 0 1 -0.19,0 q -0.11,-0.22 -0.26,-0.45 -0.13,-0.18 -0.34,-0.1 c -4.53,1.69 -11.55,0.87 -16.43,0.87 q -1.25,0.01 -3.39,-1.44 a 0.82,0.81 30.9 0 0 -1.17,0.29 q -0.26,0.5 -0.7,0.64 -0.59,0.18 -0.01,0.19 0.24,0.01 0.39,0.2 0.32,0.41 -0.19,0.51 l -5.56,1.04 q -0.42,0.08 -0.56,0.49 -0.15,0.47 -0.64,0.74 -0.12,0.07 -0.18,-0.05 -0.06,-0.12 -0.11,-0.23 -0.04,-0.08 -0.13,0 -0.16,0.13 -0.34,0.13 -0.27,0 -0.46,-0.19 l -0.79,-0.78 q -0.32,-0.32 -0.73,-0.14 -0.78,0.33 -1.33,-0.15 -0.37,-0.34 -0.86,-0.44 -0.38,-0.08 -0.66,0.03 -0.59,0.23 -0.82,-0.36 -0.46,-1.18 -0.45,-2.54 c -0.41,-5.89 -4.29,-9.4 -8.37,-13.63 q -4.54,-5.19 -6.17,-8.25 c -2.73,-5.13 -2.43,-10.07 -2.41,-17.65 q 0.03,-8.67 0.09,-17.29 0.07,-4.85 -1.98,-8.89 0.94,0.13 1.62,0.52 0.32,0.2 0.61,-0.05 0.61,-0.51 1.18,-0.42 c 5.81,0.88 8.56,0.63 13.21,-0.04 q 2.37,-0.34 5.34,-0.1 3.1,0.24 6.22,0.12 0.35,-0.02 0.56,0.27 l 0.24,0.31 q 0.18,0.24 0.46,0.13 c 2.36,-0.92 4.53,-0.45 6.49,-0.51 q 5.18,-0.17 10.35,0.06 c 2.09,0.1 4.1,-0.52 6.01,-0.46 4.72,0.15 9.71,-0.01 14.34,0.86 1.29,0.24 2.35,-0.22 3.53,-0.13 q 3.44,0.25 6.86,-0.06 0.33,-0.03 0.38,-0.36 0.06,-0.33 -0.21,-0.59 -0.28,-0.26 -0.54,0.02 -0.23,0.24 -0.59,0.15 -0.41,-0.09 -0.53,-0.32 -0.25,-0.5 0.29,-0.61 4.77,-1.01 9.25,0.63 0.08,0.03 0.42,0.09 0.35,0.07 0.49,0.39 a 0.55,0.53 84.1 0 0 0.37,0.31 q 1.57,0.36 3.18,0.27 3.92,-0.2 8.21,1.06 a 0.39,0.38 86 0 0 0.46,-0.53 q -0.14,-0.28 0.08,-0.36 0.1,-0.04 0.15,0.08 0.02,0.04 0.05,0.09 0.06,0.09 0.17,0.08 0.47,-0.04 1.07,-1.06 z"
     id="path157" />
  <path
     fill="#ff743f"
     d="m 1033.3918,408.99296 c -7.04,6.15 -13.86,5.11 -22.36,3.41 -7.56,-1.51 -12.58002,3.3 -14.75002,10.08 q -6.32,19.78 -12.17,37.89 -8.17,0.36 -15.8,2.01 -3.19,0.69 -11.77,-0.31 a 0.1,0.1 0 0 0 -0.11,0.11 q 0.01,0.22 -0.07,0.38 a 0.15,0.15 0 0 1 -0.24,0.03 q -0.86,-0.96 -2.09,-1 -0.36,-0.01 -0.36,-0.37 v -1.01 q 0,-0.68 -0.68,-0.65 l -3.45,0.17 q 14.86,-43.28 21.18,-62.52 1.11,-3.37 3.15,-5.59 3.82,-3.14 10.69,-6.03 12.07,-5.07 24.30002,-9.73 c 8.11,-3.08 16.01,-3.94 23.25,1.81 9.98,7.91 9.68,22.58 1.28,31.32 z"
     id="path158" />
  <path
     fill="#ff743f"
     d="m 1401.4218,423.21296 10.72,31.92 q -1.14,0.04 -1.57,0.6 a 0.85,0.86 17.4 0 1 -0.59,0.31 q -9.71,0.79 -19.44,0.69 c -1.73,-0.02 -3.5,0.36 -5.16,0.13 q -2.33,-0.34 -4.68,-0.49 -0.13,-0.01 -0.17,0.12 -0.04,0.17 -0.09,0.33 -0.02,0.04 -0.01,0 0.03,-0.25 -0.11,-0.51 -0.08,-0.15 -0.24,-0.18 -1.99,-0.35 -1.97,-2.61 a 0.15,0.15 0 0 0 -0.29,-0.04 q -0.04,0.13 -0.07,0.27 -0.04,0.14 -0.1,0.01 -0.21,-0.46 -0.75,-0.26 -7.25,-23.96 -10.33,-32.77 -2.69,-7.7 -10.35,-8.46 c -3.13,-0.31 -6.99,1 -10.42,1.46 -14.18,1.88 -23.15,-10.97 -21.38,-24.16 q 1.33,-7.23 7.27,-11.92 c 6.89,-5.45 14.91,-5.03 22.68,-1.87 q 17.63,7.17 31.39,13.76 c 4.79,2.29 6.53,6.8 8.51,12.71 q 3.52,10.49 7.15,20.96 z"
     id="path159" />
  <path
     fill="#ff6243"
     d="m 1150.1118,427.80296 q -0.01,1.36 0.45,2.54 0.23,0.59 0.82,0.36 0.28,-0.11 0.66,-0.03 0.49,0.1 0.86,0.44 0.55,0.48 1.33,0.15 0.41,-0.18 0.73,0.14 l 0.79,0.78 q 0.19,0.19 0.46,0.19 0.18,0 0.34,-0.13 0.09,-0.08 0.13,0 0.05,0.11 0.11,0.23 0.06,0.12 0.18,0.05 0.49,-0.27 0.64,-0.74 0.14,-0.41 0.56,-0.49 l 5.56,-1.04 q 0.51,-0.1 0.19,-0.51 -0.15,-0.19 -0.39,-0.2 -0.58,-0.01 0.01,-0.19 0.44,-0.14 0.7,-0.64 a 0.82,0.81 30.9 0 1 1.17,-0.29 q 2.14,1.45 3.39,1.44 c 4.88,0 11.9,0.82 16.43,-0.87 q 0.21,-0.08 0.34,0.1 0.15,0.23 0.26,0.45 a 0.11,0.1 44.3 0 0 0.19,0 q 0.06,-0.14 0.12,-0.26 0.01,-0.04 0.05,-0.03 1.76,0.5 3.15,-0.67 0.38,-0.31 0.86,-0.34 c 2.52,-0.13 5.02,-0.41 7.52,-0.26 q 5.68,0.32 11.34,0.85 0.35,0.03 0.36,0.38 0.01,0.15 0.01,0.29 a 0.3,0.3 0 0 0 0.25,0.3 q 5.07,0.83 4.29,-1.91 -0.43,21.88 0.12,34.85 c 0.31,7.36 6.78,14 14.32,12.38 5.56,-1.19 12.22,-7.8 16.68,-10.59 17.89,-11.18 41.57,-10.37 56.6,5.16 3.38,3.5 6.5,8.4 9.73,12.81 q -0.02,0.31 -0.64,-0.02 a 0.09,0.09 0 0 0 -0.11,0.14 q 0.13,0.13 0.27,0.26 a 0.09,0.09 0 0 1 -0.06,0.16 q -0.9,0.05 -1.5,0.73 -0.37,0.4 -0.87,0.6 -1.19,0.47 -2.46,0.5 -0.01,0 -0.25,0.12 -0.17,0.07 -0.13,0.24 0.09,0.41 -0.24,0.67 -0.43,0.32 -1,0.18 -0.42,-0.09 -0.69,0.24 -0.31,0.41 -0.82,0.12 -0.45,-0.26 -0.97,-0.25 c -6.02,0.15 -11.86,2.36 -17.91,2.55 -2.53,0.09 -5.22,0.61 -7.49,0.62 q -10.52,0.04 -21.01,0.87 c -0.69,0.05 -1.01,-0.16 -1.65,-0.1 q -4.54,0.43 -9.1,0.32 -5.16,-0.12 -10.33,-0.29 -0.09,0 -0.15,0.06 l -0.24,0.24 q -0.06,0.06 -0.16,0.05 c -2.27,-0.43 -4.64,0.22 -6.43,0.26 q -5.85,0.13 -11.68,0.55 -2.7,0.2 -12.63,-0.59 c -2.1,-0.17 -4.01,-1.25 -6.24,-1.53 a 1.58,1.57 19.5 0 0 -1.52,0.72 q -0.8,1.25 -0.58,2.56 a 0.39,0.39 0 0 1 -0.66,0.33 l -0.26,-0.26 c 5.36,-20.74 -26.5,-22.55 -24.5,-2.91 q -0.47,0.03 -0.74,0.8 -0.04,0.13 -0.15,0.04 -0.17,-0.15 -0.12,-0.37 0.1,-0.36 -0.27,-0.31 -3.97,0.59 -6.83,0.54 -6.6,-0.12 -12.34,0.55 -0.16,0.02 -5.84,0.38 -2.47,0.15 -5.82,0.83 -4.61,0.94 -17,1.05 -0.73,0.01 -1.07,0.32 a 0.56,0.54 22 0 1 -0.39,0.16 c -5.56,0 -11.11,0.09 -16.65,-0.27 q -10.32,-0.66 -20.63,-1.39 a 0.12,0.12 0 0 0 -0.13,0.13 q 0.02,0.13 -0.01,0.27 -0.02,0.11 -0.63,0.05 -2.51,-0.28 -4.51,-1.85 -0.42,-0.34 -0.96,-0.22 -1.2,0.27 -2.09,-0.41 -0.33,-0.25 -0.71,-0.11 -0.64,0.23 -1.06,-0.16 -0.27,-0.26 -0.64,-0.27 -1.32,-0.06 -3.52,-1.02 -4.71,-2.06 -12.52,-3.59 -0.41,-0.08 -0.8,0.04 -0.18,0.05 -0.34,0.04 -0.4,-0.01 -0.71,-0.26 -2.32,-1.78 -1.74,-2.28 c 4.12,-4.66 7.97,-10.46 12.08,-14.19 q 14.07,-12.77 33.03,-10.92 c 13.34,1.3 21.06,6.66 30.87,13.83 5.86,4.28 11.15,6.33 17.25,2.06 5.22,-3.65 5.41,-9.66 5.47,-15.87 q 0.15,-14.74 0.22,-29.44 z"
     id="path160" />
  <path
     fill="#ff4f48"
     d="m 1412.1418,455.13296 q 5.73,16.63 11.34,33.62 0.82,2.49 1.15,5.01 0.41,2.94 -0.8,5.29 -0.09,0.18 -0.23,0.23 -0.2,0.07 -0.35,-0.09 -0.07,-0.06 -0.09,0.02 -0.03,0.12 -0.11,0.23 -0.04,0.05 -0.08,0.01 c -1.95,-1.62 -6.19,-1.56 -8.63,-1.75 q -0.47,-0.03 -0.83,-0.35 -1.04,-0.94 -1.5,-1.06 -4.37,-1.13 -10.17,-0.44 c -0.86,0.1 -1.73,0.83 -2.95,0.3 q -0.43,-0.19 -0.88,-0.08 c -0.97,0.22 -1.99,-0.35 -2.71,-0.42 q -8.03,-0.81 -13.01,0.54 -5.93,1.61 -9.98,0.89 -1.44,-0.25 -4.5,0.62 c -3.37,0.97 -6.28,1.42 -9.48,2.11 q -2.44,0.53 -5.12,0.69 -3.78,0.24 -5.16,0.64 c -1.62,0.48 -3.21,0.47 -4.31,0.7 q -12.29,2.62 -18.03,4.57 -2.62,0.89 -5.65,3.74 -0.77,0.72 -1.69,1.36 -0.9,0.62 -1.74,1.32 -1.44,1.19 -2.75,1.68 -3.71,1.37 -7.6,2.12 a 1.07,1.03 11.8 0 0 -0.65,0.41 c -0.88,1.22 -2.16,0.51 -3.13,0.58 q -5.21,0.4 -10.25,1.84 -0.47,0.14 -0.87,0.33 -4.28,2.06 -9.03,2.37 -0.48,0.03 -0.81,-0.32 -0.21,-0.23 -0.51,-0.36 -0.37,-0.16 -0.97,0 -4.7,1.21 -7.27,1.52 c -3.06,0.36 -5.8,1.26 -8.57,1.39 -3.06,0.14 -5.08,0.8 -7.5,0.79 -1.83,-0.01 -3.08,0.27 -4.69,0.5 q -8.61,1.21 -17.28,1.52 -0.59,0.02 -1.85,-0.26 c -1.2,-0.27 -2.38,0.22 -3.53,0.05 -1.42,-0.22 -2.53,-0.38 -4.03,-0.28 q -7.39,0.49 -14.81,0.21 -0.43,-0.01 -0.67,0.35 -0.58,0.89 -1.96,0.35 -1.53,-0.6 -4.34,-0.54 -9.99,0.24 -19.96,0.95 c -3.33,0.24 -7.67,0.02 -10.86,-0.24 -2.78,-0.22 -5.51,-0.08 -8.24,-0.44 q -9.21,-1.21 -17.99,-0.38 a 4.1,4.13 48 0 1 -1.21,-0.06 q -4.94,-1 -12,-0.3 -1.81,0.18 -2.45,0.43 -0.54,0.22 -1.09,0.06 l -1.44,-0.42 q -0.52,-0.15 -0.91,0.23 -0.15,0.16 -0.36,0.22 -0.61,0.18 -0.86,0.13 c -1.95,-0.42 -4.22,0.14 -5.81,-0.67 q -0.43,-0.23 -0.91,-0.12 -0.81,0.19 -1.64,0.18 c -1.1,-0.01 -1.72,-0.77 -3.09,-0.49 a 1.37,1.37 0 0 1 -0.92,-0.11 q -1.52,-0.75 -3.26,-0.38 -0.46,0.1 -0.78,-0.24 -0.39,-0.41 -0.97,-0.04 c -0.9,-0.08 -2.79,-0.82 -3.43,-0.78 q -0.21,0.01 -0.41,0.07 -0.46,0.14 -0.88,-0.1 c -2.09,-1.2 -4.56,-0.86 -6.39,-1.27 q -10.72,-2.39 -17.65,-2.65 -6.44,-0.25 -12.73,-1.75 -3.47,-0.83 -8.77,-1.55 -1.69,-0.23 -2.66,-1.69 -0.27,-0.42 -0.76,-0.5 -2.29,-0.35 -4.58,-0.35 -1.26,0 -4.23,-2.38 a 1.06,1.06 0 0 0 -1.03,-0.16 q -0.86,0.32 -1.24,-0.49 a 0.75,0.76 79.2 0 0 -0.63,-0.42 q -1.38,-0.06 -2.31,-0.97 -0.38,-0.38 -0.87,-0.59 -9.6,-4.19 -13.71,-4.77 -20.07,-2.85 -29.87002,-4.91 -8.47,-1.78 -26.28,-6.76 c -3.83,-1.07 -7.89,-0.44 -11.75,-0.83 q -0.55,-0.05 -1.04,0.21 l -0.28,0.16 q -0.54,0.29 -1.11,0.07 -1.21,-0.47 -2.51,-0.29 a 0.28,0.29 85.2 0 0 -0.24,0.28 q 0,0.13 -0.01,0.26 -0.01,0.4 -0.41,0.41 c -3.64,0.04 -6.57,0.89 -10.13,1.4 q -0.54,0.08 -0.96,0.41 -0.81,0.64 -1.8,0.42 -0.17,-0.04 -0.18,0.14 0,0.18 -0.2,0.28 -0.18,0.09 -0.32,-0.06 -0.32,-0.34 -0.75,-0.54 0.01,-3.62 0.91,-6.45 2.64,-8.29 8.36,-24.74 l 1.58,-4.77 3.45,-0.17 q 0.68,-0.03 0.68,0.65 v 1.01 q 0,0.36 0.36,0.37 1.23,0.04 2.09,1 a 0.15,0.15 0 0 0 0.24,-0.03 q 0.08,-0.16 0.07,-0.38 a 0.1,0.1 0 0 1 0.11,-0.11 q 8.58,1 11.77,0.31 7.63,-1.65 15.8,-2.01 c -2.36,7.14 -5.21,13.77 -0.25,20.55 q 2.25,3.09 5.81,4.07 c 7.19,1.98 12.78002,-2.93 16.41002,-8.48 2.55,-3.92 20.18,-2.38 24.3,-1.46 4.93,1.11 9.94,3.61 14.55,6.02 q 2.74,1.44 6.26,1.26 -0.58,0.5 1.74,2.28 0.31,0.25 0.71,0.26 0.16,0.01 0.34,-0.04 0.39,-0.12 0.8,-0.04 7.81,1.53 12.52,3.59 2.2,0.96 3.52,1.02 0.37,0.01 0.64,0.27 0.42,0.39 1.06,0.16 0.38,-0.14 0.71,0.11 0.89,0.68 2.09,0.41 0.54,-0.12 0.96,0.22 2,1.57 4.51,1.85 0.61,0.06 0.63,-0.05 0.03,-0.14 0.01,-0.27 a 0.12,0.12 0 0 1 0.13,-0.13 q 10.31,0.73 20.63,1.39 c 5.54,0.36 11.09,0.27 16.65,0.27 a 0.56,0.54 22 0 0 0.39,-0.16 q 0.34,-0.31 1.07,-0.32 12.39,-0.11 17,-1.05 3.35,-0.68 5.82,-0.83 5.68,-0.36 5.84,-0.38 5.74,-0.67 12.34,-0.55 2.86,0.05 6.83,-0.54 0.37,-0.05 0.27,0.31 -0.05,0.22 0.12,0.37 0.11,0.09 0.15,-0.04 0.27,-0.77 0.74,-0.8 c 1.63,14.84 19.37,15.44 24.5,2.91 l 0.26,0.26 a 0.39,0.39 0 0 0 0.66,-0.33 q -0.22,-1.31 0.58,-2.56 a 1.58,1.57 19.5 0 1 1.52,-0.72 c 2.23,0.28 4.14,1.36 6.24,1.53 q 9.93,0.79 12.63,0.59 5.83,-0.42 11.68,-0.55 c 1.79,-0.04 4.16,-0.69 6.43,-0.26 q 0.1,0.01 0.16,-0.05 l 0.24,-0.24 q 0.06,-0.06 0.15,-0.06 5.17,0.17 10.33,0.29 4.56,0.11 9.1,-0.32 c 0.64,-0.06 0.96,0.15 1.65,0.1 q 10.49,-0.83 21.01,-0.87 c 2.27,-0.01 4.96,-0.53 7.49,-0.62 6.05,-0.19 11.89,-2.4 17.91,-2.55 q 0.52,-0.01 0.97,0.25 0.51,0.29 0.82,-0.12 0.27,-0.33 0.69,-0.24 0.57,0.14 1,-0.18 0.33,-0.26 0.24,-0.67 -0.04,-0.17 0.13,-0.24 0.24,-0.12 0.25,-0.12 1.27,-0.03 2.46,-0.5 0.5,-0.2 0.87,-0.6 0.6,-0.68 1.5,-0.73 a 0.09,0.09 0 0 0 0.06,-0.16 q -0.14,-0.13 -0.27,-0.26 a 0.09,0.09 0 0 1 0.11,-0.14 q 0.62,0.33 0.64,0.02 5.81,-0.37 11.88,-4.27 c 7.34,-4.73 21.39,-4.97 29.51,-3.68 2.91,0.47 4.6,3.6 6.45,5.57 5.37,5.74 12.43,7.44 18.78,1.92 q 5.98,-5.18 3.37,-14.23 -2.07,-7.19 -4.51,-14.31 0.54,-0.2 0.75,0.26 0.06,0.13 0.1,-0.01 0.03,-0.14 0.07,-0.27 a 0.15,0.15 0 0 1 0.29,0.04 q -0.02,2.26 1.97,2.61 0.16,0.03 0.24,0.18 0.14,0.26 0.11,0.51 -0.01,0.04 0.01,0 0.05,-0.16 0.09,-0.33 0.04,-0.13 0.17,-0.12 2.35,0.15 4.68,0.49 c 1.66,0.23 3.43,-0.15 5.16,-0.13 q 9.73,0.1 19.44,-0.69 a 0.85,0.86 17.4 0 0 0.59,-0.31 q 0.43,-0.56 1.57,-0.6 z"
     id="path161" />
  <path
     fill="#ff3d4f"
     d="m 1424.6318,493.76296 -0.09,5.9 q -4.02,13.81 -18.24,17.33 -2.81,0.69 -11.75,0.7 -33.5,0.05 -67,0.07 c -6.67,0 -10.47,4.23 -14.08,9.65 q -20.09,30.22 -40.62,60.15 -0.38,-0.28 -0.8,-0.17 -0.36,0.1 -0.38,0.39 0,0.02 0,0 -0.01,-0.14 -0.01,-0.28 0,-0.05 -0.15,-0.1 l -3.77,-1.07 q -0.38,-0.11 -0.68,-0.38 -2.38,-2.14 -5.21,-2.08 c 8.49,-4.87 22.2,-16.54 20.7,-27.38 -0.95,-6.88 -8.39,-10.5 -14.04,-6.81 q -0.99,0.65 -5.1,5.52 -6.49,7.7 -15.82,11.57 c -4.5,1.86 -8.95,2.22 -13.79,2.15 q -10.25,-0.14 -20.5,0.09 -3.29,0.07 -5.98,3.24 0.01,-0.79 -0.19,-0.95 -0.21,-0.16 -0.25,0.1 -0.03,0.28 -0.24,0.32 -0.32,0.04 -0.51,-0.21 -0.42,-0.56 -1.28,-0.22 a 0.91,0.92 51.2 0 1 -0.85,-0.09 c -1.57,-1.06 -3.6,0.04 -5.22,-0.06 q -4.49,-0.28 -8.97,-0.17 -8.68,0.22 -17.36,0.65 c -2.63,0.13 -5.6,1.01 -8.57,0.99 q -1.45,-0.01 -2.67,0.53 -1.27,0.56 -2.59,1.06 -3.08,-5.28 -9.58,-5.25 -10.24,0.05 -20.5,0.18 -14.86,0.19 -25.17,-10.21 -1.44,-1.45 -6.12,-7.11 c -4.67,-5.66 -15.28,-3.98 -16.39,4.17 q -0.67,4.87 1.73,9.98 -1.61,0.92 -1.03,-2.13 a 0.05,0.05 0 0 0 -0.08,-0.04 q -0.25,0.26 -0.49,0.52 a 0.12,0.12 0 0 1 -0.2,-0.12 q 0.33,-0.85 0.08,-1.58 -0.17,-0.51 -0.68,-0.35 c -0.64,0.21 -1.29,0.51 -1.96,0.48 q -2.77,-0.11 -4.98,-1.15 -18.56,-27.21 -24.53,-36.28 -5.17,-7.85 -14.42,-7.77 -35.88002,0.3 -71.75002,0.2 c -12.54,-0.03 -23.19,-9.36 -23.86,-22.05 q 0.43,0.2 0.75,0.54 0.14,0.15 0.32,0.06 0.2,-0.1 0.2,-0.28 0.01,-0.18 0.18,-0.14 0.99,0.22 1.8,-0.42 0.42,-0.33 0.96,-0.41 c 3.56,-0.51 6.49,-1.36 10.13,-1.4 q 0.4,-0.01 0.41,-0.41 0.01,-0.13 0.01,-0.26 a 0.28,0.29 85.2 0 1 0.24,-0.28 q 1.3,-0.18 2.51,0.29 0.57,0.22 1.11,-0.07 l 0.28,-0.16 q 0.49,-0.26 1.04,-0.21 c 3.86,0.39 7.92,-0.24 11.75,0.83 q 17.81,4.98 26.28,6.76 9.80002,2.06 29.87002,4.91 4.11,0.58 13.71,4.77 0.49,0.21 0.87,0.59 0.93,0.91 2.31,0.97 a 0.75,0.76 79.2 0 1 0.63,0.42 q 0.38,0.81 1.24,0.49 a 1.06,1.06 0 0 1 1.03,0.16 q 2.97,2.38 4.23,2.38 2.29,0 4.58,0.35 0.49,0.08 0.76,0.5 0.97,1.46 2.66,1.69 5.3,0.72 8.77,1.55 6.29,1.5 12.73,1.75 6.93,0.26 17.65,2.65 c 1.83,0.41 4.3,0.07 6.39,1.27 q 0.42,0.24 0.88,0.1 0.2,-0.06 0.41,-0.07 c 0.64,-0.04 2.53,0.7 3.43,0.78 q 0.58,-0.37 0.97,0.04 0.32,0.34 0.78,0.24 1.74,-0.37 3.26,0.38 a 1.37,1.37 0 0 0 0.92,0.11 c 1.37,-0.28 1.99,0.48 3.09,0.49 q 0.83,0.01 1.64,-0.18 0.48,-0.11 0.91,0.12 c 1.59,0.81 3.86,0.25 5.81,0.67 q 0.25,0.05 0.86,-0.13 0.21,-0.06 0.36,-0.22 0.39,-0.38 0.91,-0.23 l 1.44,0.42 q 0.55,0.16 1.09,-0.06 0.64,-0.25 2.45,-0.43 7.06,-0.7 12,0.3 a 4.1,4.13 48 0 0 1.21,0.06 q 8.78,-0.83 17.99,0.38 c 2.73,0.36 5.46,0.22 8.24,0.44 3.19,0.26 7.53,0.48 10.86,0.24 q 9.97,-0.71 19.96,-0.95 2.81,-0.06 4.34,0.54 1.38,0.54 1.96,-0.35 0.24,-0.36 0.67,-0.35 7.42,0.28 14.81,-0.21 c 1.5,-0.1 2.61,0.06 4.03,0.28 1.15,0.17 2.33,-0.32 3.53,-0.05 q 1.26,0.28 1.85,0.26 8.67,-0.31 17.28,-1.52 c 1.61,-0.23 2.86,-0.51 4.69,-0.5 2.42,0.01 4.44,-0.65 7.5,-0.79 2.77,-0.13 5.51,-1.03 8.57,-1.39 q 2.57,-0.31 7.27,-1.52 0.6,-0.16 0.97,0 0.3,0.13 0.51,0.36 0.33,0.35 0.81,0.32 4.75,-0.31 9.03,-2.37 0.4,-0.19 0.87,-0.33 5.04,-1.44 10.25,-1.84 c 0.97,-0.07 2.25,0.64 3.13,-0.58 a 1.07,1.03 11.8 0 1 0.65,-0.41 q 3.89,-0.75 7.6,-2.12 1.31,-0.49 2.75,-1.68 0.84,-0.7 1.74,-1.32 0.92,-0.64 1.69,-1.36 3.03,-2.85 5.65,-3.74 5.74,-1.95 18.03,-4.57 c 1.1,-0.23 2.69,-0.22 4.31,-0.7 q 1.38,-0.4 5.16,-0.64 2.68,-0.16 5.12,-0.69 c 3.2,-0.69 6.11,-1.14 9.48,-2.11 q 3.06,-0.87 4.5,-0.62 4.05,0.72 9.98,-0.89 4.98,-1.35 13.01,-0.54 c 0.72,0.07 1.74,0.64 2.71,0.42 q 0.45,-0.11 0.88,0.08 c 1.22,0.53 2.09,-0.2 2.95,-0.3 q 5.8,-0.69 10.17,0.44 0.46,0.12 1.5,1.06 0.36,0.32 0.83,0.35 c 2.44,0.19 6.68,0.13 8.63,1.75 q 0.04,0.04 0.08,-0.01 0.08,-0.11 0.11,-0.23 0.02,-0.08 0.09,-0.02 0.15,0.16 0.35,0.09 0.14,-0.05 0.23,-0.23 1.21,-2.35 0.8,-5.29 z"
     id="path162" />
  <path
     fill="#fc235e"
     d="m 1073.2518,561.59296 q 2.21,1.04 4.98,1.15 c 0.67,0.03 1.32,-0.27 1.96,-0.48 q 0.51,-0.16 0.68,0.35 0.25,0.73 -0.08,1.58 a 0.12,0.12 0 0 0 0.2,0.12 q 0.24,-0.26 0.49,-0.52 a 0.05,0.05 0 0 1 0.08,0.04 q -0.58,3.05 1.03,2.13 8.92,13.4 23.97,20.61 c 8.47,4.06 16.14,4.5 26.49,4.52 10.19,0.02 30.81,0.39 25.57,-16.89 q 1.32,-0.5 2.59,-1.06 1.22,-0.54 2.67,-0.53 c 2.97,0.02 5.94,-0.86 8.57,-0.99 q 8.68,-0.43 17.36,-0.65 4.48,-0.11 8.97,0.17 c 1.62,0.1 3.65,-1 5.22,0.06 a 0.91,0.92 51.2 0 0 0.85,0.09 q 0.86,-0.34 1.28,0.22 0.19,0.25 0.51,0.21 0.21,-0.04 0.24,-0.32 0.04,-0.26 0.25,-0.1 0.2,0.16 0.19,0.95 -3.22,3.78 -2.25,8.23 c 1.63,7.44 7.21,9.72 14.23,10.13 15.11,0.86 28.55,1.45 42.55,-6.74 q 2.83,-0.06 5.21,2.08 0.3,0.27 0.68,0.38 l 3.77,1.07 q 0.15,0.05 0.15,0.1 0,0.14 0.01,0.28 0,0.02 0,0 0.02,-0.29 0.38,-0.39 0.42,-0.11 0.8,0.17 -6.84,10 -13.77,19.94 -3.26,4.68 -3.5,11.73 -0.15,4.48 0.14,19.97 l -0.17,1.51 q -0.04,0.31 -0.34,0.4 l -2.07,0.65 a 0.75,0.78 51.2 0 1 -0.57,-0.05 q -1.51,-0.8 -3.28,-0.71 -9.16,0.45 -18.25,1.83 -3.12,0.48 -5.14,0.66 -3.52,0.33 -5.12,0.65 -2.71,0.56 -5.79,1.08 -3.07,-0.92 -7.05,-0.89 -27.7,0.23 -55.39,0.44 -1.29,0.01 -4.05,0.82 l -0.34,-1.96 q -0.08,-0.48 -0.55,-0.62 -1.88,-0.59 -3.45,-2.24 -1.71,-1.8 -4.52,-2.39 -0.1,-0.02 -0.17,0.02 -0.12,0.07 -0.16,0.22 -0.04,0.13 -0.17,0.08 c -1.59,-0.65 -3.1,-0.64 -4.65,-1.4 q -1.92,-0.94 -4.44,-1.56 c -1.44,-0.35 -2.59,-1.22 -4.28,-1.46 q -0.95,-0.13 -1.75,-0.59 c -1.26,-0.71 -2.38,-0.24 -3.71,-0.83 q -4.62,-2.07 -9.62,-2.74 -0.54,-0.07 -1.06,0.1 -0.08,0.03 -0.12,-0.05 -0.08,-0.17 -0.1,-0.37 -0.02,-0.27 -0.25,-0.13 -0.29,0.19 -0.45,-0.01 -0.25,-0.32 -0.24,-0.72 0,-0.38 -0.25,-0.43 c 0.02,-6.38 0.27,-10.19 -0.99,-15.17 -0.76,-3.02 -4.27,-8.46 -6.64,-11.89 q -13.73,-19.92 -27.34,-39.86 z m 147.5606,55.088 a 10.09,10.09 0 0 0 -10.0724,-10.1076 l -57.6999,-0.1007 a 10.09,10.09 0 0 0 -10.1076,10.0723 l -0,0.7 a 10.09,10.09 0 0 0 10.0724,10.1076 l 57.6999,0.1007 a 10.09,10.09 0 0 0 10.1076,-10.0723 z"
     id="path163" />
  <path
     fill="#ca2176"
     d="m 1108.2218,628.51296 q 0.25,0.05 0.25,0.43 -0.01,0.4 0.24,0.72 0.16,0.2 0.45,0.01 0.23,-0.14 0.25,0.13 0.02,0.2 0.1,0.37 0.04,0.08 0.12,0.05 0.52,-0.17 1.06,-0.1 5,0.67 9.62,2.74 c 1.33,0.59 2.45,0.12 3.71,0.83 q 0.8,0.46 1.75,0.59 c 1.69,0.24 2.84,1.11 4.28,1.46 q 2.52,0.62 4.44,1.56 c 1.55,0.76 3.06,0.75 4.65,1.4 q 0.13,0.05 0.17,-0.08 0.04,-0.15 0.16,-0.22 0.07,-0.04 0.17,-0.02 2.81,0.59 4.52,2.39 1.57,1.65 3.45,2.24 0.47,0.14 0.55,0.62 l 0.34,1.96 c -7.02,3.21 -6.69,14.19 -0.62,17.7 q 2.57,1.48 9.09,1.46 25.79,-0.09 51.58,-0.1 c 6.31,0 11.34,-2.39 12,-8.9 q 0.68,-6.68 -5.56,-10.53 3.08,-0.52 5.79,-1.08 1.6,-0.32 5.12,-0.65 2.02,-0.18 5.14,-0.66 9.09,-1.38 18.25,-1.83 1.77,-0.09 3.28,0.71 a 0.75,0.78 51.2 0 0 0.57,0.05 l 2.07,-0.65 q 0.3,-0.09 0.34,-0.4 l 0.17,-1.51 0.16,47.57 c -2.38,0.3 -4.85,0.65 -7.1,0.83 q -14.37,1.14 -28.57,1.59 -2.69,-6.37 -10.41,-6.41 -26.63,-0.15 -53.25,0.08 c -5.64,0.05 -10.82,0.1 -13.05,6.42 q -0.74,0.12 -0.9,0.69 -0.09,0.3 -0.31,0.08 -0.11,-0.1 -0.22,-0.18 -0.23,-0.16 -0.55,-0.21 -7.83,-1.07 -15.7,-1.82 -2.43,-0.23 -4.85,-0.54 -0.49,-0.06 -0.83,-0.41 -0.59,-0.6 -1.33,-0.48 c -1.75,0.28 -3.14,-0.02 -5.01,-0.57 q -1.14,-0.33 -5.71,-1.3 z"
     id="path164" />
  <path
     fill="#802fa7"
     d="m 1108.0918,684.54296 q 4.57,0.97 5.71,1.3 c 1.87,0.55 3.26,0.85 5.01,0.57 q 0.74,-0.12 1.33,0.48 0.34,0.35 0.83,0.41 2.42,0.31 4.85,0.54 7.87,0.75 15.7,1.82 0.32,0.05 0.55,0.21 0.11,0.08 0.22,0.18 0.22,0.22 0.31,-0.08 0.16,-0.57 0.9,-0.69 c -1.72,7.84 2.28,14.5 10.8,14.4 q 26.25,-0.33 52.5,-0.13 c 2.81,0.02 7.28,-0.27 9.79,-2.01 q 5.98,-4.16 3.62,-12.35 14.2,-0.45 28.57,-1.59 c 2.25,-0.18 4.72,-0.53 7.1,-0.83 l -0.08,30.85 c -4.09,-1.14 -8.04,0.23 -11.49,0.25 q -3.26,0.01 -6.51,0.06 -0.28,0 -0.53,0.19 -0.34,0.25 -0.76,0.25 l -12.96,0.01 q -0.3,0 -0.31,-0.22 v -0.01 q 0,-0.22 0.22,-0.23 2.47,-0.1 4.96,-0.04 0.01,0 0.01,0 0,0 0,-0.01 0,-0.01 -0.02,-0.01 c -4.02,0.02 -7.69,-0.13 -11.93,0.36 -8.35,0.96 -17.22,0.88 -22.92,0.67 q -6.25,-0.24 -12.51,0.02 c -0.79,0.04 -1.74,-0.37 -2.66,-0.34 q -15.84,0.38 -23.58,-0.37 -4.5,-0.44 -7.51,-0.36 -0.99,0.02 -2.45,-0.32 c -1.94,-0.47 -4.86,0.08 -6.15,0.02 q -6.27,-0.31 -12.55,-0.43 c -2.14,-0.04 -4.22,-1.06 -6.35,-0.96 q -6.18,0.3 -10.59,-0.13 -0.56,-0.06 -0.67,-0.61 -0.13,-0.71 -0.54,-0.9 z"
     id="path165" />
  <path
     fill="#4744e2"
     d="m 1108.0018,714.51296 q 0.41,0.19 0.54,0.9 0.11,0.55 0.67,0.61 4.41,0.43 10.59,0.13 c 2.13,-0.1 4.21,0.92 6.35,0.96 q 6.28,0.12 12.55,0.43 c 1.29,0.06 4.21,-0.49 6.15,-0.02 q 1.46,0.34 2.45,0.32 3.01,-0.08 7.51,0.36 7.74,0.75 23.58,0.37 c 0.92,-0.03 1.87,0.38 2.66,0.34 q 6.26,-0.26 12.51,-0.02 c 5.7,0.21 14.57,0.29 22.92,-0.67 4.24,-0.49 7.91,-0.34 11.93,-0.36 q 0.02,0 0.02,0.01 0,0.01 0,0.01 0,0 -0.01,0 -2.49,-0.06 -4.96,0.04 -0.22,0.01 -0.22,0.23 v 0.01 q 0.01,0.22 0.31,0.22 l 12.96,-0.01 q 0.42,0 0.76,-0.25 0.25,-0.19 0.53,-0.19 3.25,-0.05 6.51,-0.06 c 3.45,-0.02 7.4,-1.39 11.49,-0.25 q 0.24,23.25 0.32,46.12 0.02,3.68 1.55,7.65 l -38.48,-0.15 q 0.94,-0.96 3.56,-2.81 c 8.26,-5.83 4.53,-18.95 -6.45,-19.01 q -17.15,-0.11 -69.25,0.06 c -10.24,0.04 -14.56,11.87 -6.97,18.19 q 2.77,2.3 5.9,3.78 l -40.06,-0.01 q 1.88,-3.75 1.87,-7.95 -0.02,-12.04 0.21,-48.98 z"
     id="path166" />
</svg>
